M48
; DRILL file {KiCad 5.1.9-73d0e3b20d~88~ubuntu18.04.1} date Mon Apr 12 21:46:42 2021
; FORMAT={-:-/ absolute / inch / decimal}
; #@! TF.CreationDate,2021-04-12T21:46:42+02:00
; #@! TF.GenerationSoftware,Kicad,Pcbnew,5.1.9-73d0e3b20d~88~ubuntu18.04.1
FMAT,2
INCH
T1C0.0120
T2C0.0180
T3C0.0394
T4C0.0591
T5C0.0787
T6C0.1260
%
G90
G05
T1
X0.32Y-1.42
X0.3204Y-1.2124
X0.3204Y-1.3276
X0.321Y-1.12
X0.405Y-0.779
X0.405Y-0.809
X0.405Y-0.839
X0.45Y-0.8398
X0.47Y-0.754
X0.473Y-2.444
X0.48Y-0.8398
X0.5Y-0.695
X0.5Y-0.725
X0.5Y-0.754
X0.51Y-0.8398
X0.56Y-0.808
X0.56Y-0.839
X0.573Y-1.934
X0.713Y-2.438
X0.9745Y-0.9755
X0.9745Y-1.0185
X1.042Y-0.92
X1.103Y-2.438
X1.156Y-0.789
X1.193Y-1.011
X1.203Y-0.853
X1.203Y-0.886
X1.341Y-0.679
X1.342Y-2.438
X1.532Y-1.006
X1.587Y-0.75
X1.61Y-1.294
X1.62Y-1.246
X1.65Y-1.27
X1.66Y-1.175
X1.681Y-1.2
X1.724Y-1.022
X1.748Y-1.0
X1.802Y-0.62
X1.892Y-0.745
X1.995Y-1.035
X2.095Y-0.82
X2.322Y-1.037
X2.354Y-1.037
X2.386Y-1.037
X2.402Y-1.175
X2.418Y-1.037
X2.477Y-1.461
X2.57Y-2.102
X2.604Y-2.102
X2.639Y-0.956
X2.675Y-0.957
X2.707Y-0.957
X2.74Y-0.958
X2.877Y-0.958
X2.909Y-0.959
X2.939Y-2.103
X2.943Y-0.958
X2.9755Y-2.1035
X3.01Y-2.103
T2
X0.5074Y-2.4026
X0.53Y-2.21
X0.56Y-0.95
X0.56Y-0.99
X0.7Y-0.77
X0.7133Y-2.3507
X0.739Y-1.797
X0.74Y-0.69
X0.74Y-0.73
X0.74Y-0.77
X0.74Y-1.51
X0.76Y-2.13
X0.8Y-0.635
X0.8Y-0.67
X0.805Y-0.475
X0.805Y-2.675
X0.835Y-0.635
X0.835Y-0.67
X1.07Y-1.98
X1.1384Y-2.4026
X1.16Y-2.21
X1.32Y-0.475
X1.32Y-2.675
X1.3433Y-2.3507
X1.39Y-2.12
X1.448Y-1.216
X1.66Y-0.66
X1.74Y-1.31
X1.74Y-1.35
X1.765Y-1.06
X1.765Y-1.095
X1.765Y-1.13
X1.765Y-1.165
X1.79Y-1.44
X1.83Y-0.475
X1.83Y-1.44
X1.83Y-2.675
X1.88Y-1.31
X1.88Y-1.35
X1.944Y-1.44
X1.945Y-1.48
X1.96Y-0.69
X2.1Y-0.62
X2.347Y-2.675
X2.35Y-0.475
X2.405Y-1.64
X2.735Y-0.475
X2.735Y-2.675
X2.825Y-1.64
X2.825Y-1.74
X2.825Y-1.84
X2.825Y-1.94
T3
X0.88Y-0.1
X0.9646Y-1.2992
X0.9646Y-1.8701
X0.98Y-0.1
X1.063Y-1.8701
X1.08Y-0.1
X1.1614Y-1.2992
X1.1614Y-1.8701
X1.18Y-0.1
X1.7791Y-1.6406
X1.7791Y-1.7406
X1.7791Y-1.8406
X1.7791Y-1.9406
X1.7791Y-2.0406
X2.0791Y-1.6406
X2.0791Y-1.7406
X2.0791Y-1.8406
X2.0791Y-1.9406
X2.0791Y-2.0406
X2.1925Y-1.6406
X2.1925Y-1.7406
X2.1925Y-1.8406
X2.1925Y-1.9406
X2.1925Y-2.0406
X2.38Y-0.7
X2.38Y-0.8
X2.48Y-0.7
X2.48Y-0.8
X2.4925Y-1.6406
X2.4925Y-1.7406
X2.4925Y-1.8406
X2.4925Y-1.9406
X2.4925Y-2.0406
X2.58Y-0.7
X2.58Y-0.8
X2.6059Y-1.1091
X2.6059Y-1.2091
X2.6059Y-1.3091
X2.6059Y-1.4091
X2.6059Y-1.5091
X2.6059Y-1.6406
X2.6059Y-1.7406
X2.6059Y-1.8406
X2.6059Y-1.9406
X2.6059Y-2.0406
X2.9059Y-1.1091
X2.9059Y-1.2091
X2.9059Y-1.3091
X2.9059Y-1.4091
X2.9059Y-1.5091
X2.9059Y-1.6406
X2.9059Y-1.7406
X2.9059Y-1.8406
X2.9059Y-1.9406
X2.9059Y-2.0406
T4
X0.1772Y-0.5748
X0.1772Y-0.7748
X0.1772Y-0.9748
X0.1772Y-1.1748
X0.1772Y-1.3748
X0.1772Y-1.5748
X0.1772Y-1.7748
X0.1772Y-1.9748
X0.1772Y-2.1748
X0.1772Y-2.3748
X0.1772Y-2.5748
T6
X0.1575Y-0.1575
X0.1575Y-2.9921
X2.9921Y-0.1575
X2.9921Y-2.9921
T5
G00X0.8425Y-1.5906
M15
G01X0.8425Y-1.5591
M16
G05
G00X1.2835Y-1.5906
M15
G01X1.2835Y-1.5591
M16
G05
T0
M30
