G04 #@! TF.GenerationSoftware,KiCad,Pcbnew,5.1.9-73d0e3b20d~88~ubuntu18.04.1*
G04 #@! TF.CreationDate,2021-04-12T21:46:39+02:00*
G04 #@! TF.ProjectId,dmx-panel-controller,646d782d-7061-46e6-956c-2d636f6e7472,v1.0-rc1*
G04 #@! TF.SameCoordinates,Original*
G04 #@! TF.FileFunction,Legend,Bot*
G04 #@! TF.FilePolarity,Positive*
%FSLAX46Y46*%
G04 Gerber Fmt 4.6, Leading zero omitted, Abs format (unit mm)*
G04 Created by KiCad (PCBNEW 5.1.9-73d0e3b20d~88~ubuntu18.04.1) date 2021-04-12 21:46:39*
%MOMM*%
%LPD*%
G01*
G04 APERTURE LIST*
%ADD10C,0.152400*%
%ADD11C,0.203200*%
%ADD12C,0.254000*%
%ADD13C,0.150000*%
%ADD14C,0.010000*%
G04 APERTURE END LIST*
D10*
X76323857Y-16465871D02*
X76577857Y-16465871D01*
X76577857Y-16865014D02*
X76577857Y-16103014D01*
X76215000Y-16103014D01*
X76033571Y-16357014D02*
X75743285Y-16357014D01*
X75924714Y-16103014D02*
X75924714Y-16756157D01*
X75888428Y-16828728D01*
X75815857Y-16865014D01*
X75743285Y-16865014D01*
X75235285Y-16465871D02*
X75126428Y-16502157D01*
X75090142Y-16538442D01*
X75053857Y-16611014D01*
X75053857Y-16719871D01*
X75090142Y-16792442D01*
X75126428Y-16828728D01*
X75199000Y-16865014D01*
X75489285Y-16865014D01*
X75489285Y-16103014D01*
X75235285Y-16103014D01*
X75162714Y-16139300D01*
X75126428Y-16175585D01*
X75090142Y-16248157D01*
X75090142Y-16320728D01*
X75126428Y-16393300D01*
X75162714Y-16429585D01*
X75235285Y-16465871D01*
X75489285Y-16465871D01*
X74727285Y-16865014D02*
X74727285Y-16103014D01*
X74654714Y-16574728D02*
X74437000Y-16865014D01*
X74437000Y-16357014D02*
X74727285Y-16647300D01*
X74146714Y-16357014D02*
X73602428Y-16357014D01*
X73929000Y-16030442D02*
X74146714Y-17010157D01*
X73675000Y-16683585D02*
X74219285Y-16683585D01*
X73892714Y-17010157D02*
X73675000Y-16030442D01*
X73239571Y-16792442D02*
X73203285Y-16828728D01*
X73239571Y-16865014D01*
X73275857Y-16828728D01*
X73239571Y-16792442D01*
X73239571Y-16865014D01*
X73384714Y-16139300D02*
X73312142Y-16103014D01*
X73130714Y-16103014D01*
X73058142Y-16139300D01*
X73021857Y-16211871D01*
X73021857Y-16284442D01*
X73058142Y-16357014D01*
X73094428Y-16393300D01*
X73167000Y-16429585D01*
X73203285Y-16465871D01*
X73239571Y-16538442D01*
X73239571Y-16574728D01*
X72731571Y-16865014D02*
X72151000Y-16103014D01*
X72622714Y-16103014D02*
X72550142Y-16139300D01*
X72513857Y-16211871D01*
X72550142Y-16284442D01*
X72622714Y-16320728D01*
X72695285Y-16284442D01*
X72731571Y-16211871D01*
X72695285Y-16139300D01*
X72622714Y-16103014D01*
X72187285Y-16828728D02*
X72151000Y-16756157D01*
X72187285Y-16683585D01*
X72259857Y-16647300D01*
X72332428Y-16683585D01*
X72368714Y-16756157D01*
X72332428Y-16828728D01*
X72259857Y-16865014D01*
X72187285Y-16828728D01*
X71715571Y-16792442D02*
X71679285Y-16828728D01*
X71715571Y-16865014D01*
X71751857Y-16828728D01*
X71715571Y-16792442D01*
X71715571Y-16865014D01*
X71860714Y-16139300D02*
X71788142Y-16103014D01*
X71606714Y-16103014D01*
X71534142Y-16139300D01*
X71497857Y-16211871D01*
X71497857Y-16284442D01*
X71534142Y-16357014D01*
X71570428Y-16393300D01*
X71643000Y-16429585D01*
X71679285Y-16465871D01*
X71715571Y-16538442D01*
X71715571Y-16574728D01*
X76632285Y-17398414D02*
X76559714Y-17398414D01*
X76487142Y-17434700D01*
X76450857Y-17470985D01*
X76414571Y-17543557D01*
X76378285Y-17688700D01*
X76378285Y-17870128D01*
X76414571Y-18015271D01*
X76450857Y-18087842D01*
X76487142Y-18124128D01*
X76559714Y-18160414D01*
X76632285Y-18160414D01*
X76704857Y-18124128D01*
X76741142Y-18087842D01*
X76777428Y-18015271D01*
X76813714Y-17870128D01*
X76813714Y-17688700D01*
X76777428Y-17543557D01*
X76741142Y-17470985D01*
X76704857Y-17434700D01*
X76632285Y-17398414D01*
X75652571Y-18160414D02*
X76088000Y-18160414D01*
X75870285Y-18160414D02*
X75870285Y-17398414D01*
X75942857Y-17507271D01*
X76015428Y-17579842D01*
X76088000Y-17616128D01*
X75180857Y-17398414D02*
X75108285Y-17398414D01*
X75035714Y-17434700D01*
X74999428Y-17470985D01*
X74963142Y-17543557D01*
X74926857Y-17688700D01*
X74926857Y-17870128D01*
X74963142Y-18015271D01*
X74999428Y-18087842D01*
X75035714Y-18124128D01*
X75108285Y-18160414D01*
X75180857Y-18160414D01*
X75253428Y-18124128D01*
X75289714Y-18087842D01*
X75326000Y-18015271D01*
X75362285Y-17870128D01*
X75362285Y-17688700D01*
X75326000Y-17543557D01*
X75289714Y-17470985D01*
X75253428Y-17434700D01*
X75180857Y-17398414D01*
X74201142Y-18160414D02*
X74636571Y-18160414D01*
X74418857Y-18160414D02*
X74418857Y-17398414D01*
X74491428Y-17507271D01*
X74564000Y-17579842D01*
X74636571Y-17616128D01*
X73475428Y-18160414D02*
X73910857Y-18160414D01*
X73693142Y-18160414D02*
X73693142Y-17398414D01*
X73765714Y-17507271D01*
X73838285Y-17579842D01*
X73910857Y-17616128D01*
X72822285Y-17652414D02*
X72822285Y-18160414D01*
X73003714Y-17362128D02*
X73185142Y-17906414D01*
X72713428Y-17906414D01*
X72459428Y-17470985D02*
X72423142Y-17434700D01*
X72350571Y-17398414D01*
X72169142Y-17398414D01*
X72096571Y-17434700D01*
X72060285Y-17470985D01*
X72024000Y-17543557D01*
X72024000Y-17616128D01*
X72060285Y-17724985D01*
X72495714Y-18160414D01*
X72024000Y-18160414D01*
X71298285Y-18160414D02*
X71733714Y-18160414D01*
X71516000Y-18160414D02*
X71516000Y-17398414D01*
X71588571Y-17507271D01*
X71661142Y-17579842D01*
X71733714Y-17616128D01*
D11*
X66771428Y-77459619D02*
X66771428Y-76443619D01*
X66336000Y-77459619D02*
X66336000Y-76927428D01*
X66384380Y-76830666D01*
X66481142Y-76782285D01*
X66626285Y-76782285D01*
X66723047Y-76830666D01*
X66771428Y-76879047D01*
X65997333Y-76782285D02*
X65610285Y-76782285D01*
X65852190Y-76443619D02*
X65852190Y-77314476D01*
X65803809Y-77411238D01*
X65707047Y-77459619D01*
X65610285Y-77459619D01*
X65416761Y-76782285D02*
X65029714Y-76782285D01*
X65271619Y-76443619D02*
X65271619Y-77314476D01*
X65223238Y-77411238D01*
X65126476Y-77459619D01*
X65029714Y-77459619D01*
X64691047Y-76782285D02*
X64691047Y-77798285D01*
X64691047Y-76830666D02*
X64594285Y-76782285D01*
X64400761Y-76782285D01*
X64304000Y-76830666D01*
X64255619Y-76879047D01*
X64207238Y-76975809D01*
X64207238Y-77266095D01*
X64255619Y-77362857D01*
X64304000Y-77411238D01*
X64400761Y-77459619D01*
X64594285Y-77459619D01*
X64691047Y-77411238D01*
X63820190Y-77411238D02*
X63723428Y-77459619D01*
X63529904Y-77459619D01*
X63433142Y-77411238D01*
X63384761Y-77314476D01*
X63384761Y-77266095D01*
X63433142Y-77169333D01*
X63529904Y-77120952D01*
X63675047Y-77120952D01*
X63771809Y-77072571D01*
X63820190Y-76975809D01*
X63820190Y-76927428D01*
X63771809Y-76830666D01*
X63675047Y-76782285D01*
X63529904Y-76782285D01*
X63433142Y-76830666D01*
X62949333Y-77362857D02*
X62900952Y-77411238D01*
X62949333Y-77459619D01*
X62997714Y-77411238D01*
X62949333Y-77362857D01*
X62949333Y-77459619D01*
X62949333Y-76830666D02*
X62900952Y-76879047D01*
X62949333Y-76927428D01*
X62997714Y-76879047D01*
X62949333Y-76830666D01*
X62949333Y-76927428D01*
X61739809Y-76395238D02*
X62610666Y-77701523D01*
X60675428Y-76395238D02*
X61546285Y-77701523D01*
X59901333Y-76782285D02*
X59901333Y-77604761D01*
X59949714Y-77701523D01*
X59998095Y-77749904D01*
X60094857Y-77798285D01*
X60240000Y-77798285D01*
X60336761Y-77749904D01*
X59901333Y-77411238D02*
X59998095Y-77459619D01*
X60191619Y-77459619D01*
X60288380Y-77411238D01*
X60336761Y-77362857D01*
X60385142Y-77266095D01*
X60385142Y-76975809D01*
X60336761Y-76879047D01*
X60288380Y-76830666D01*
X60191619Y-76782285D01*
X59998095Y-76782285D01*
X59901333Y-76830666D01*
X59417523Y-77459619D02*
X59417523Y-76782285D01*
X59417523Y-76443619D02*
X59465904Y-76492000D01*
X59417523Y-76540380D01*
X59369142Y-76492000D01*
X59417523Y-76443619D01*
X59417523Y-76540380D01*
X59078857Y-76782285D02*
X58691809Y-76782285D01*
X58933714Y-76443619D02*
X58933714Y-77314476D01*
X58885333Y-77411238D01*
X58788571Y-77459619D01*
X58691809Y-77459619D01*
X58353142Y-77459619D02*
X58353142Y-76443619D01*
X57917714Y-77459619D02*
X57917714Y-76927428D01*
X57966095Y-76830666D01*
X58062857Y-76782285D01*
X58208000Y-76782285D01*
X58304761Y-76830666D01*
X58353142Y-76879047D01*
X56998476Y-76782285D02*
X56998476Y-77459619D01*
X57433904Y-76782285D02*
X57433904Y-77314476D01*
X57385523Y-77411238D01*
X57288761Y-77459619D01*
X57143619Y-77459619D01*
X57046857Y-77411238D01*
X56998476Y-77362857D01*
X56514666Y-77459619D02*
X56514666Y-76443619D01*
X56514666Y-76830666D02*
X56417904Y-76782285D01*
X56224380Y-76782285D01*
X56127619Y-76830666D01*
X56079238Y-76879047D01*
X56030857Y-76975809D01*
X56030857Y-77266095D01*
X56079238Y-77362857D01*
X56127619Y-77411238D01*
X56224380Y-77459619D01*
X56417904Y-77459619D01*
X56514666Y-77411238D01*
X55595428Y-77362857D02*
X55547047Y-77411238D01*
X55595428Y-77459619D01*
X55643809Y-77411238D01*
X55595428Y-77362857D01*
X55595428Y-77459619D01*
X54676190Y-77411238D02*
X54772952Y-77459619D01*
X54966476Y-77459619D01*
X55063238Y-77411238D01*
X55111619Y-77362857D01*
X55160000Y-77266095D01*
X55160000Y-76975809D01*
X55111619Y-76879047D01*
X55063238Y-76830666D01*
X54966476Y-76782285D01*
X54772952Y-76782285D01*
X54676190Y-76830666D01*
X54095619Y-77459619D02*
X54192380Y-77411238D01*
X54240761Y-77362857D01*
X54289142Y-77266095D01*
X54289142Y-76975809D01*
X54240761Y-76879047D01*
X54192380Y-76830666D01*
X54095619Y-76782285D01*
X53950476Y-76782285D01*
X53853714Y-76830666D01*
X53805333Y-76879047D01*
X53756952Y-76975809D01*
X53756952Y-77266095D01*
X53805333Y-77362857D01*
X53853714Y-77411238D01*
X53950476Y-77459619D01*
X54095619Y-77459619D01*
X53321523Y-77459619D02*
X53321523Y-76782285D01*
X53321523Y-76879047D02*
X53273142Y-76830666D01*
X53176380Y-76782285D01*
X53031238Y-76782285D01*
X52934476Y-76830666D01*
X52886095Y-76927428D01*
X52886095Y-77459619D01*
X52886095Y-76927428D02*
X52837714Y-76830666D01*
X52740952Y-76782285D01*
X52595809Y-76782285D01*
X52499047Y-76830666D01*
X52450666Y-76927428D01*
X52450666Y-77459619D01*
X51241142Y-76395238D02*
X52112000Y-77701523D01*
X50467047Y-77459619D02*
X50467047Y-76927428D01*
X50515428Y-76830666D01*
X50612190Y-76782285D01*
X50805714Y-76782285D01*
X50902476Y-76830666D01*
X50467047Y-77411238D02*
X50563809Y-77459619D01*
X50805714Y-77459619D01*
X50902476Y-77411238D01*
X50950857Y-77314476D01*
X50950857Y-77217714D01*
X50902476Y-77120952D01*
X50805714Y-77072571D01*
X50563809Y-77072571D01*
X50467047Y-77024190D01*
X49983238Y-77459619D02*
X49983238Y-76443619D01*
X49886476Y-77072571D02*
X49596190Y-77459619D01*
X49596190Y-76782285D02*
X49983238Y-77169333D01*
X49015619Y-77459619D02*
X49112380Y-77411238D01*
X49160761Y-77362857D01*
X49209142Y-77266095D01*
X49209142Y-76975809D01*
X49160761Y-76879047D01*
X49112380Y-76830666D01*
X49015619Y-76782285D01*
X48870476Y-76782285D01*
X48773714Y-76830666D01*
X48725333Y-76879047D01*
X48676952Y-76975809D01*
X48676952Y-77266095D01*
X48725333Y-77362857D01*
X48773714Y-77411238D01*
X48870476Y-77459619D01*
X49015619Y-77459619D01*
X48241523Y-77459619D02*
X48241523Y-76782285D01*
X48241523Y-76975809D02*
X48193142Y-76879047D01*
X48144761Y-76830666D01*
X48048000Y-76782285D01*
X47951238Y-76782285D01*
X47612571Y-76782285D02*
X47612571Y-77459619D01*
X47612571Y-76879047D02*
X47564190Y-76830666D01*
X47467428Y-76782285D01*
X47322285Y-76782285D01*
X47225523Y-76830666D01*
X47177142Y-76927428D01*
X47177142Y-77459619D01*
X46741714Y-77411238D02*
X46644952Y-77459619D01*
X46451428Y-77459619D01*
X46354666Y-77411238D01*
X46306285Y-77314476D01*
X46306285Y-77266095D01*
X46354666Y-77169333D01*
X46451428Y-77120952D01*
X46596571Y-77120952D01*
X46693333Y-77072571D01*
X46741714Y-76975809D01*
X46741714Y-76927428D01*
X46693333Y-76830666D01*
X46596571Y-76782285D01*
X46451428Y-76782285D01*
X46354666Y-76830666D01*
X45967619Y-76782285D02*
X45725714Y-77459619D01*
X45483809Y-76782285D02*
X45725714Y-77459619D01*
X45822476Y-77701523D01*
X45870857Y-77749904D01*
X45967619Y-77798285D01*
X45145142Y-77411238D02*
X45048380Y-77459619D01*
X44854857Y-77459619D01*
X44758095Y-77411238D01*
X44709714Y-77314476D01*
X44709714Y-77266095D01*
X44758095Y-77169333D01*
X44854857Y-77120952D01*
X44999999Y-77120952D01*
X45096761Y-77072571D01*
X45145142Y-76975809D01*
X45145142Y-76927428D01*
X45096761Y-76830666D01*
X44999999Y-76782285D01*
X44854857Y-76782285D01*
X44758095Y-76830666D01*
X44274285Y-77072571D02*
X43500190Y-77072571D01*
X43016380Y-77459619D02*
X43016380Y-76782285D01*
X43016380Y-76975809D02*
X42968000Y-76879047D01*
X42919619Y-76830666D01*
X42822857Y-76782285D01*
X42726095Y-76782285D01*
X41952000Y-77459619D02*
X41952000Y-76443619D01*
X41952000Y-77411238D02*
X42048761Y-77459619D01*
X42242285Y-77459619D01*
X42339047Y-77411238D01*
X42387428Y-77362857D01*
X42435809Y-77266095D01*
X42435809Y-76975809D01*
X42387428Y-76879047D01*
X42339047Y-76830666D01*
X42242285Y-76782285D01*
X42048761Y-76782285D01*
X41952000Y-76830666D01*
X41468190Y-77459619D02*
X41468190Y-76782285D01*
X41468190Y-76443619D02*
X41516571Y-76492000D01*
X41468190Y-76540380D01*
X41419809Y-76492000D01*
X41468190Y-76443619D01*
X41468190Y-76540380D01*
X40258666Y-76395238D02*
X41129523Y-77701523D01*
X39484571Y-77459619D02*
X39484571Y-76443619D01*
X39484571Y-77411238D02*
X39581333Y-77459619D01*
X39774857Y-77459619D01*
X39871619Y-77411238D01*
X39920000Y-77362857D01*
X39968380Y-77266095D01*
X39968380Y-76975809D01*
X39920000Y-76879047D01*
X39871619Y-76830666D01*
X39774857Y-76782285D01*
X39581333Y-76782285D01*
X39484571Y-76830666D01*
X39000761Y-77459619D02*
X39000761Y-76782285D01*
X39000761Y-76879047D02*
X38952380Y-76830666D01*
X38855619Y-76782285D01*
X38710476Y-76782285D01*
X38613714Y-76830666D01*
X38565333Y-76927428D01*
X38565333Y-77459619D01*
X38565333Y-76927428D02*
X38516952Y-76830666D01*
X38420190Y-76782285D01*
X38275047Y-76782285D01*
X38178285Y-76830666D01*
X38129904Y-76927428D01*
X38129904Y-77459619D01*
X37742857Y-77459619D02*
X37210666Y-76782285D01*
X37742857Y-76782285D02*
X37210666Y-77459619D01*
X36823619Y-77072571D02*
X36049523Y-77072571D01*
X35565714Y-76782285D02*
X35565714Y-77798285D01*
X35565714Y-76830666D02*
X35468952Y-76782285D01*
X35275428Y-76782285D01*
X35178666Y-76830666D01*
X35130285Y-76879047D01*
X35081904Y-76975809D01*
X35081904Y-77266095D01*
X35130285Y-77362857D01*
X35178666Y-77411238D01*
X35275428Y-77459619D01*
X35468952Y-77459619D01*
X35565714Y-77411238D01*
X34211047Y-77459619D02*
X34211047Y-76927428D01*
X34259428Y-76830666D01*
X34356190Y-76782285D01*
X34549714Y-76782285D01*
X34646476Y-76830666D01*
X34211047Y-77411238D02*
X34307809Y-77459619D01*
X34549714Y-77459619D01*
X34646476Y-77411238D01*
X34694857Y-77314476D01*
X34694857Y-77217714D01*
X34646476Y-77120952D01*
X34549714Y-77072571D01*
X34307809Y-77072571D01*
X34211047Y-77024190D01*
X33727238Y-76782285D02*
X33727238Y-77459619D01*
X33727238Y-76879047D02*
X33678857Y-76830666D01*
X33582095Y-76782285D01*
X33436952Y-76782285D01*
X33340190Y-76830666D01*
X33291809Y-76927428D01*
X33291809Y-77459619D01*
X32420952Y-77411238D02*
X32517714Y-77459619D01*
X32711238Y-77459619D01*
X32808000Y-77411238D01*
X32856380Y-77314476D01*
X32856380Y-76927428D01*
X32808000Y-76830666D01*
X32711238Y-76782285D01*
X32517714Y-76782285D01*
X32420952Y-76830666D01*
X32372571Y-76927428D01*
X32372571Y-77024190D01*
X32856380Y-77120952D01*
X31791999Y-77459619D02*
X31888761Y-77411238D01*
X31937142Y-77314476D01*
X31937142Y-76443619D01*
X31404952Y-77072571D02*
X30630857Y-77072571D01*
X29711619Y-77411238D02*
X29808380Y-77459619D01*
X30001904Y-77459619D01*
X30098666Y-77411238D01*
X30147047Y-77362857D01*
X30195428Y-77266095D01*
X30195428Y-76975809D01*
X30147047Y-76879047D01*
X30098666Y-76830666D01*
X30001904Y-76782285D01*
X29808380Y-76782285D01*
X29711619Y-76830666D01*
X29131047Y-77459619D02*
X29227809Y-77411238D01*
X29276190Y-77362857D01*
X29324571Y-77266095D01*
X29324571Y-76975809D01*
X29276190Y-76879047D01*
X29227809Y-76830666D01*
X29131047Y-76782285D01*
X28985904Y-76782285D01*
X28889142Y-76830666D01*
X28840761Y-76879047D01*
X28792380Y-76975809D01*
X28792380Y-77266095D01*
X28840761Y-77362857D01*
X28889142Y-77411238D01*
X28985904Y-77459619D01*
X29131047Y-77459619D01*
X28356952Y-76782285D02*
X28356952Y-77459619D01*
X28356952Y-76879047D02*
X28308571Y-76830666D01*
X28211809Y-76782285D01*
X28066666Y-76782285D01*
X27969904Y-76830666D01*
X27921523Y-76927428D01*
X27921523Y-77459619D01*
X27582857Y-76782285D02*
X27195809Y-76782285D01*
X27437714Y-76443619D02*
X27437714Y-77314476D01*
X27389333Y-77411238D01*
X27292571Y-77459619D01*
X27195809Y-77459619D01*
X26857142Y-77459619D02*
X26857142Y-76782285D01*
X26857142Y-76975809D02*
X26808761Y-76879047D01*
X26760380Y-76830666D01*
X26663619Y-76782285D01*
X26566857Y-76782285D01*
X26083047Y-77459619D02*
X26179809Y-77411238D01*
X26228190Y-77362857D01*
X26276571Y-77266095D01*
X26276571Y-76975809D01*
X26228190Y-76879047D01*
X26179809Y-76830666D01*
X26083047Y-76782285D01*
X25937904Y-76782285D01*
X25841142Y-76830666D01*
X25792761Y-76879047D01*
X25744380Y-76975809D01*
X25744380Y-77266095D01*
X25792761Y-77362857D01*
X25841142Y-77411238D01*
X25937904Y-77459619D01*
X26083047Y-77459619D01*
X25163809Y-77459619D02*
X25260571Y-77411238D01*
X25308952Y-77314476D01*
X25308952Y-76443619D01*
X24631619Y-77459619D02*
X24728380Y-77411238D01*
X24776761Y-77314476D01*
X24776761Y-76443619D01*
X23857523Y-77411238D02*
X23954285Y-77459619D01*
X24147809Y-77459619D01*
X24244571Y-77411238D01*
X24292952Y-77314476D01*
X24292952Y-76927428D01*
X24244571Y-76830666D01*
X24147809Y-76782285D01*
X23954285Y-76782285D01*
X23857523Y-76830666D01*
X23809142Y-76927428D01*
X23809142Y-77024190D01*
X24292952Y-77120952D01*
X23373714Y-77459619D02*
X23373714Y-76782285D01*
X23373714Y-76975809D02*
X23325333Y-76879047D01*
X23276952Y-76830666D01*
X23180190Y-76782285D01*
X23083428Y-76782285D01*
D12*
X59786428Y-61453571D02*
X59846904Y-61514047D01*
X60028333Y-61574523D01*
X60149285Y-61574523D01*
X60330714Y-61514047D01*
X60451666Y-61393095D01*
X60512142Y-61272142D01*
X60572619Y-61030238D01*
X60572619Y-60848809D01*
X60512142Y-60606904D01*
X60451666Y-60485952D01*
X60330714Y-60365000D01*
X60149285Y-60304523D01*
X60028333Y-60304523D01*
X59846904Y-60365000D01*
X59786428Y-60425476D01*
X59060714Y-61574523D02*
X59181666Y-61514047D01*
X59242142Y-61453571D01*
X59302619Y-61332619D01*
X59302619Y-60969761D01*
X59242142Y-60848809D01*
X59181666Y-60788333D01*
X59060714Y-60727857D01*
X58879285Y-60727857D01*
X58758333Y-60788333D01*
X58697857Y-60848809D01*
X58637380Y-60969761D01*
X58637380Y-61332619D01*
X58697857Y-61453571D01*
X58758333Y-61514047D01*
X58879285Y-61574523D01*
X59060714Y-61574523D01*
X58093095Y-60727857D02*
X58093095Y-61997857D01*
X58093095Y-60788333D02*
X57972142Y-60727857D01*
X57730238Y-60727857D01*
X57609285Y-60788333D01*
X57548809Y-60848809D01*
X57488333Y-60969761D01*
X57488333Y-61332619D01*
X57548809Y-61453571D01*
X57609285Y-61514047D01*
X57730238Y-61574523D01*
X57972142Y-61574523D01*
X58093095Y-61514047D01*
X57065000Y-60727857D02*
X56762619Y-61574523D01*
X56460238Y-60727857D02*
X56762619Y-61574523D01*
X56883571Y-61876904D01*
X56944047Y-61937380D01*
X57065000Y-61997857D01*
X55976428Y-61574523D02*
X55976428Y-60727857D01*
X55976428Y-60969761D02*
X55915952Y-60848809D01*
X55855476Y-60788333D01*
X55734523Y-60727857D01*
X55613571Y-60727857D01*
X55190238Y-61574523D02*
X55190238Y-60727857D01*
X55190238Y-60304523D02*
X55250714Y-60365000D01*
X55190238Y-60425476D01*
X55129761Y-60365000D01*
X55190238Y-60304523D01*
X55190238Y-60425476D01*
X54041190Y-60727857D02*
X54041190Y-61755952D01*
X54101666Y-61876904D01*
X54162142Y-61937380D01*
X54283095Y-61997857D01*
X54464523Y-61997857D01*
X54585476Y-61937380D01*
X54041190Y-61514047D02*
X54162142Y-61574523D01*
X54404047Y-61574523D01*
X54525000Y-61514047D01*
X54585476Y-61453571D01*
X54645952Y-61332619D01*
X54645952Y-60969761D01*
X54585476Y-60848809D01*
X54525000Y-60788333D01*
X54404047Y-60727857D01*
X54162142Y-60727857D01*
X54041190Y-60788333D01*
X53436428Y-61574523D02*
X53436428Y-60304523D01*
X52892142Y-61574523D02*
X52892142Y-60909285D01*
X52952619Y-60788333D01*
X53073571Y-60727857D01*
X53255000Y-60727857D01*
X53375952Y-60788333D01*
X53436428Y-60848809D01*
X52468809Y-60727857D02*
X51985000Y-60727857D01*
X52287380Y-60304523D02*
X52287380Y-61393095D01*
X52226904Y-61514047D01*
X52105952Y-61574523D01*
X51985000Y-61574523D01*
X49565952Y-60606904D02*
X49686904Y-60546428D01*
X49928809Y-60546428D01*
X50049761Y-60606904D01*
X50170714Y-60727857D01*
X50231190Y-60848809D01*
X50231190Y-61090714D01*
X50170714Y-61211666D01*
X50049761Y-61332619D01*
X49928809Y-61393095D01*
X49686904Y-61393095D01*
X49565952Y-61332619D01*
X49807857Y-60123095D02*
X50110238Y-60183571D01*
X50412619Y-60365000D01*
X50594047Y-60667380D01*
X50654523Y-60969761D01*
X50594047Y-61272142D01*
X50412619Y-61574523D01*
X50110238Y-61755952D01*
X49807857Y-61816428D01*
X49505476Y-61755952D01*
X49203095Y-61574523D01*
X49021666Y-61272142D01*
X48961190Y-60969761D01*
X49021666Y-60667380D01*
X49203095Y-60365000D01*
X49505476Y-60183571D01*
X49807857Y-60123095D01*
X47509761Y-60425476D02*
X47449285Y-60365000D01*
X47328333Y-60304523D01*
X47025952Y-60304523D01*
X46904999Y-60365000D01*
X46844523Y-60425476D01*
X46784047Y-60546428D01*
X46784047Y-60667380D01*
X46844523Y-60848809D01*
X47570238Y-61574523D01*
X46784047Y-61574523D01*
X45997857Y-60304523D02*
X45876904Y-60304523D01*
X45755952Y-60365000D01*
X45695476Y-60425476D01*
X45634999Y-60546428D01*
X45574523Y-60788333D01*
X45574523Y-61090714D01*
X45634999Y-61332619D01*
X45695476Y-61453571D01*
X45755952Y-61514047D01*
X45876904Y-61574523D01*
X45997857Y-61574523D01*
X46118809Y-61514047D01*
X46179285Y-61453571D01*
X46239761Y-61332619D01*
X46300238Y-61090714D01*
X46300238Y-60788333D01*
X46239761Y-60546428D01*
X46179285Y-60425476D01*
X46118809Y-60365000D01*
X45997857Y-60304523D01*
X45090714Y-60425476D02*
X45030238Y-60365000D01*
X44909285Y-60304523D01*
X44606904Y-60304523D01*
X44485952Y-60365000D01*
X44425476Y-60425476D01*
X44364999Y-60546428D01*
X44364999Y-60667380D01*
X44425476Y-60848809D01*
X45151190Y-61574523D01*
X44364999Y-61574523D01*
X43155476Y-61574523D02*
X43881190Y-61574523D01*
X43518333Y-61574523D02*
X43518333Y-60304523D01*
X43639285Y-60485952D01*
X43760238Y-60606904D01*
X43881190Y-60667380D01*
X40917857Y-61574523D02*
X41341190Y-60969761D01*
X41643571Y-61574523D02*
X41643571Y-60304523D01*
X41159761Y-60304523D01*
X41038809Y-60365000D01*
X40978333Y-60425476D01*
X40917857Y-60546428D01*
X40917857Y-60727857D01*
X40978333Y-60848809D01*
X41038809Y-60909285D01*
X41159761Y-60969761D01*
X41643571Y-60969761D01*
X40373571Y-61574523D02*
X40373571Y-60727857D01*
X40373571Y-60304523D02*
X40434047Y-60365000D01*
X40373571Y-60425476D01*
X40313095Y-60365000D01*
X40373571Y-60304523D01*
X40373571Y-60425476D01*
X39587380Y-61574523D02*
X39708333Y-61514047D01*
X39768809Y-61393095D01*
X39768809Y-60304523D01*
X38619761Y-61514047D02*
X38740714Y-61574523D01*
X38982619Y-61574523D01*
X39103571Y-61514047D01*
X39164047Y-61393095D01*
X39164047Y-60909285D01*
X39103571Y-60788333D01*
X38982619Y-60727857D01*
X38740714Y-60727857D01*
X38619761Y-60788333D01*
X38559285Y-60909285D01*
X38559285Y-61030238D01*
X39164047Y-61151190D01*
X38135952Y-60727857D02*
X37833571Y-61574523D01*
X37531190Y-60727857D02*
X37833571Y-61574523D01*
X37954523Y-61876904D01*
X38014999Y-61937380D01*
X38135952Y-61997857D01*
X37107857Y-61514047D02*
X36926428Y-61574523D01*
X36624047Y-61574523D01*
X36503095Y-61514047D01*
X36442619Y-61453571D01*
X36382142Y-61332619D01*
X36382142Y-61211666D01*
X36442619Y-61090714D01*
X36503095Y-61030238D01*
X36624047Y-60969761D01*
X36865952Y-60909285D01*
X36986904Y-60848809D01*
X37047380Y-60788333D01*
X37107857Y-60667380D01*
X37107857Y-60546428D01*
X37047380Y-60425476D01*
X36986904Y-60365000D01*
X36865952Y-60304523D01*
X36563571Y-60304523D01*
X36382142Y-60365000D01*
X36019285Y-60727857D02*
X35535476Y-60727857D01*
X35837857Y-60304523D02*
X35837857Y-61393095D01*
X35777380Y-61514047D01*
X35656428Y-61574523D01*
X35535476Y-61574523D01*
X34567857Y-61574523D02*
X34567857Y-60909285D01*
X34628333Y-60788333D01*
X34749285Y-60727857D01*
X34991190Y-60727857D01*
X35112142Y-60788333D01*
X34567857Y-61514047D02*
X34688809Y-61574523D01*
X34991190Y-61574523D01*
X35112142Y-61514047D01*
X35172619Y-61393095D01*
X35172619Y-61272142D01*
X35112142Y-61151190D01*
X34991190Y-61090714D01*
X34688809Y-61090714D01*
X34567857Y-61030238D01*
X33963095Y-61574523D02*
X33963095Y-60727857D01*
X33963095Y-60969761D02*
X33902619Y-60848809D01*
X33842142Y-60788333D01*
X33721190Y-60727857D01*
X33600238Y-60727857D01*
X32995476Y-61574523D02*
X33116428Y-61514047D01*
X33176904Y-61393095D01*
X33176904Y-60304523D01*
X32511666Y-61574523D02*
X32511666Y-60727857D01*
X32511666Y-60304523D02*
X32572142Y-60365000D01*
X32511666Y-60425476D01*
X32451190Y-60365000D01*
X32511666Y-60304523D01*
X32511666Y-60425476D01*
X31362619Y-60727857D02*
X31362619Y-61755952D01*
X31423095Y-61876904D01*
X31483571Y-61937380D01*
X31604523Y-61997857D01*
X31785952Y-61997857D01*
X31906904Y-61937380D01*
X31362619Y-61514047D02*
X31483571Y-61574523D01*
X31725476Y-61574523D01*
X31846428Y-61514047D01*
X31906904Y-61453571D01*
X31967380Y-61332619D01*
X31967380Y-60969761D01*
X31906904Y-60848809D01*
X31846428Y-60788333D01*
X31725476Y-60727857D01*
X31483571Y-60727857D01*
X31362619Y-60788333D01*
X30757857Y-61574523D02*
X30757857Y-60304523D01*
X30213571Y-61574523D02*
X30213571Y-60909285D01*
X30274047Y-60788333D01*
X30394999Y-60727857D01*
X30576428Y-60727857D01*
X30697380Y-60788333D01*
X30757857Y-60848809D01*
X29790238Y-60727857D02*
X29306428Y-60727857D01*
X29608809Y-60304523D02*
X29608809Y-61393095D01*
X29548333Y-61514047D01*
X29427380Y-61574523D01*
X29306428Y-61574523D01*
D11*
X55346285Y-72587238D02*
X55201142Y-72635619D01*
X54959238Y-72635619D01*
X54862476Y-72587238D01*
X54814095Y-72538857D01*
X54765714Y-72442095D01*
X54765714Y-72345333D01*
X54814095Y-72248571D01*
X54862476Y-72200190D01*
X54959238Y-72151809D01*
X55152761Y-72103428D01*
X55249523Y-72055047D01*
X55297904Y-72006666D01*
X55346285Y-71909904D01*
X55346285Y-71813142D01*
X55297904Y-71716380D01*
X55249523Y-71668000D01*
X55152761Y-71619619D01*
X54910857Y-71619619D01*
X54765714Y-71668000D01*
X54330285Y-72635619D02*
X54330285Y-71619619D01*
X53943238Y-71619619D01*
X53846476Y-71668000D01*
X53798095Y-71716380D01*
X53749714Y-71813142D01*
X53749714Y-71958285D01*
X53798095Y-72055047D01*
X53846476Y-72103428D01*
X53943238Y-72151809D01*
X54330285Y-72151809D01*
X52975619Y-72103428D02*
X53314285Y-72103428D01*
X53314285Y-72635619D02*
X53314285Y-71619619D01*
X52830476Y-71619619D01*
X52443428Y-72635619D02*
X52443428Y-71619619D01*
X52104761Y-72345333D01*
X51766095Y-71619619D01*
X51766095Y-72635619D01*
X51282285Y-72635619D02*
X51282285Y-71619619D01*
X51040380Y-71619619D01*
X50895238Y-71668000D01*
X50798476Y-71764761D01*
X50750095Y-71861523D01*
X50701714Y-72055047D01*
X50701714Y-72200190D01*
X50750095Y-72393714D01*
X50798476Y-72490476D01*
X50895238Y-72587238D01*
X51040380Y-72635619D01*
X51282285Y-72635619D01*
X49927619Y-72103428D02*
X49782476Y-72151809D01*
X49734095Y-72200190D01*
X49685714Y-72296952D01*
X49685714Y-72442095D01*
X49734095Y-72538857D01*
X49782476Y-72587238D01*
X49879238Y-72635619D01*
X50266285Y-72635619D01*
X50266285Y-71619619D01*
X49927619Y-71619619D01*
X49830857Y-71668000D01*
X49782476Y-71716380D01*
X49734095Y-71813142D01*
X49734095Y-71909904D01*
X49782476Y-72006666D01*
X49830857Y-72055047D01*
X49927619Y-72103428D01*
X50266285Y-72103428D01*
X48669714Y-72538857D02*
X48718095Y-72587238D01*
X48863238Y-72635619D01*
X48960000Y-72635619D01*
X49105142Y-72587238D01*
X49201904Y-72490476D01*
X49250285Y-72393714D01*
X49298666Y-72200190D01*
X49298666Y-72055047D01*
X49250285Y-71861523D01*
X49201904Y-71764761D01*
X49105142Y-71668000D01*
X48960000Y-71619619D01*
X48863238Y-71619619D01*
X48718095Y-71668000D01*
X48669714Y-71716380D01*
X59562666Y-56596019D02*
X59901333Y-56112209D01*
X60143238Y-56596019D02*
X60143238Y-55580019D01*
X59756190Y-55580019D01*
X59659428Y-55628400D01*
X59611047Y-55676780D01*
X59562666Y-55773542D01*
X59562666Y-55918685D01*
X59611047Y-56015447D01*
X59659428Y-56063828D01*
X59756190Y-56112209D01*
X60143238Y-56112209D01*
X58740190Y-56547638D02*
X58836952Y-56596019D01*
X59030476Y-56596019D01*
X59127238Y-56547638D01*
X59175619Y-56450876D01*
X59175619Y-56063828D01*
X59127238Y-55967066D01*
X59030476Y-55918685D01*
X58836952Y-55918685D01*
X58740190Y-55967066D01*
X58691809Y-56063828D01*
X58691809Y-56160590D01*
X59175619Y-56257352D01*
X58111238Y-56596019D02*
X58208000Y-56547638D01*
X58256380Y-56450876D01*
X58256380Y-55580019D01*
X57337142Y-56547638D02*
X57433904Y-56596019D01*
X57627428Y-56596019D01*
X57724190Y-56547638D01*
X57772571Y-56450876D01*
X57772571Y-56063828D01*
X57724190Y-55967066D01*
X57627428Y-55918685D01*
X57433904Y-55918685D01*
X57337142Y-55967066D01*
X57288761Y-56063828D01*
X57288761Y-56160590D01*
X57772571Y-56257352D01*
X56417904Y-56596019D02*
X56417904Y-56063828D01*
X56466285Y-55967066D01*
X56563047Y-55918685D01*
X56756571Y-55918685D01*
X56853333Y-55967066D01*
X56417904Y-56547638D02*
X56514666Y-56596019D01*
X56756571Y-56596019D01*
X56853333Y-56547638D01*
X56901714Y-56450876D01*
X56901714Y-56354114D01*
X56853333Y-56257352D01*
X56756571Y-56208971D01*
X56514666Y-56208971D01*
X56417904Y-56160590D01*
X55982476Y-56547638D02*
X55885714Y-56596019D01*
X55692190Y-56596019D01*
X55595428Y-56547638D01*
X55547047Y-56450876D01*
X55547047Y-56402495D01*
X55595428Y-56305733D01*
X55692190Y-56257352D01*
X55837333Y-56257352D01*
X55934095Y-56208971D01*
X55982476Y-56112209D01*
X55982476Y-56063828D01*
X55934095Y-55967066D01*
X55837333Y-55918685D01*
X55692190Y-55918685D01*
X55595428Y-55967066D01*
X54724571Y-56547638D02*
X54821333Y-56596019D01*
X55014857Y-56596019D01*
X55111619Y-56547638D01*
X55160000Y-56450876D01*
X55160000Y-56063828D01*
X55111619Y-55967066D01*
X55014857Y-55918685D01*
X54821333Y-55918685D01*
X54724571Y-55967066D01*
X54676190Y-56063828D01*
X54676190Y-56160590D01*
X55160000Y-56257352D01*
X53805333Y-56596019D02*
X53805333Y-55580019D01*
X53805333Y-56547638D02*
X53902095Y-56596019D01*
X54095619Y-56596019D01*
X54192380Y-56547638D01*
X54240761Y-56499257D01*
X54289142Y-56402495D01*
X54289142Y-56112209D01*
X54240761Y-56015447D01*
X54192380Y-55967066D01*
X54095619Y-55918685D01*
X53902095Y-55918685D01*
X53805333Y-55967066D01*
X52112000Y-55918685D02*
X52112000Y-56596019D01*
X52547428Y-55918685D02*
X52547428Y-56450876D01*
X52499047Y-56547638D01*
X52402285Y-56596019D01*
X52257142Y-56596019D01*
X52160380Y-56547638D01*
X52112000Y-56499257D01*
X51628190Y-55918685D02*
X51628190Y-56596019D01*
X51628190Y-56015447D02*
X51579809Y-55967066D01*
X51483047Y-55918685D01*
X51337904Y-55918685D01*
X51241142Y-55967066D01*
X51192761Y-56063828D01*
X51192761Y-56596019D01*
X50273523Y-56596019D02*
X50273523Y-55580019D01*
X50273523Y-56547638D02*
X50370285Y-56596019D01*
X50563809Y-56596019D01*
X50660571Y-56547638D01*
X50708952Y-56499257D01*
X50757333Y-56402495D01*
X50757333Y-56112209D01*
X50708952Y-56015447D01*
X50660571Y-55967066D01*
X50563809Y-55918685D01*
X50370285Y-55918685D01*
X50273523Y-55967066D01*
X49402666Y-56547638D02*
X49499428Y-56596019D01*
X49692952Y-56596019D01*
X49789714Y-56547638D01*
X49838095Y-56450876D01*
X49838095Y-56063828D01*
X49789714Y-55967066D01*
X49692952Y-55918685D01*
X49499428Y-55918685D01*
X49402666Y-55967066D01*
X49354285Y-56063828D01*
X49354285Y-56160590D01*
X49838095Y-56257352D01*
X48918857Y-56596019D02*
X48918857Y-55918685D01*
X48918857Y-56112209D02*
X48870476Y-56015447D01*
X48822095Y-55967066D01*
X48725333Y-55918685D01*
X48628571Y-55918685D01*
X46935238Y-56499257D02*
X46983619Y-56547638D01*
X47128761Y-56596019D01*
X47225523Y-56596019D01*
X47370666Y-56547638D01*
X47467428Y-56450876D01*
X47515809Y-56354114D01*
X47564190Y-56160590D01*
X47564190Y-56015447D01*
X47515809Y-55821923D01*
X47467428Y-55725161D01*
X47370666Y-55628400D01*
X47225523Y-55580019D01*
X47128761Y-55580019D01*
X46983619Y-55628400D01*
X46935238Y-55676780D01*
X46499809Y-56063828D02*
X46161142Y-56063828D01*
X46016000Y-56596019D02*
X46499809Y-56596019D01*
X46499809Y-55580019D01*
X46016000Y-55580019D01*
X45000000Y-56596019D02*
X45338666Y-56112209D01*
X45580571Y-56596019D02*
X45580571Y-55580019D01*
X45193523Y-55580019D01*
X45096761Y-55628400D01*
X45048380Y-55676780D01*
X45000000Y-55773542D01*
X45000000Y-55918685D01*
X45048380Y-56015447D01*
X45096761Y-56063828D01*
X45193523Y-56112209D01*
X45580571Y-56112209D01*
X44564571Y-56596019D02*
X44564571Y-55580019D01*
X43984000Y-56596019D01*
X43984000Y-55580019D01*
X42532571Y-55580019D02*
X42339047Y-55580019D01*
X42242285Y-55628400D01*
X42145523Y-55725161D01*
X42097142Y-55918685D01*
X42097142Y-56257352D01*
X42145523Y-56450876D01*
X42242285Y-56547638D01*
X42339047Y-56596019D01*
X42532571Y-56596019D01*
X42629333Y-56547638D01*
X42726095Y-56450876D01*
X42774476Y-56257352D01*
X42774476Y-55918685D01*
X42726095Y-55725161D01*
X42629333Y-55628400D01*
X42532571Y-55580019D01*
X41661714Y-56596019D02*
X41661714Y-55580019D01*
X41661714Y-56063828D02*
X41081142Y-56063828D01*
X41081142Y-56596019D02*
X41081142Y-55580019D01*
X40113523Y-56596019D02*
X40597333Y-56596019D01*
X40597333Y-55580019D01*
X39774857Y-56208971D02*
X39000761Y-56208971D01*
X38565333Y-56547638D02*
X38420190Y-56596019D01*
X38178285Y-56596019D01*
X38081523Y-56547638D01*
X38033142Y-56499257D01*
X37984761Y-56402495D01*
X37984761Y-56305733D01*
X38033142Y-56208971D01*
X38081523Y-56160590D01*
X38178285Y-56112209D01*
X38371809Y-56063828D01*
X38468571Y-56015447D01*
X38516952Y-55967066D01*
X38565333Y-55870304D01*
X38565333Y-55773542D01*
X38516952Y-55676780D01*
X38468571Y-55628400D01*
X38371809Y-55580019D01*
X38129904Y-55580019D01*
X37984761Y-55628400D01*
X36823619Y-55676780D02*
X36775238Y-55628400D01*
X36678476Y-55580019D01*
X36436571Y-55580019D01*
X36339809Y-55628400D01*
X36291428Y-55676780D01*
X36243047Y-55773542D01*
X36243047Y-55870304D01*
X36291428Y-56015447D01*
X36872000Y-56596019D01*
X36243047Y-56596019D01*
X34549714Y-56596019D02*
X35033523Y-56596019D01*
X35033523Y-55580019D01*
X34211047Y-56596019D02*
X34211047Y-55918685D01*
X34211047Y-55580019D02*
X34259428Y-55628400D01*
X34211047Y-55676780D01*
X34162666Y-55628400D01*
X34211047Y-55580019D01*
X34211047Y-55676780D01*
X33291809Y-56547638D02*
X33388571Y-56596019D01*
X33582095Y-56596019D01*
X33678857Y-56547638D01*
X33727238Y-56499257D01*
X33775619Y-56402495D01*
X33775619Y-56112209D01*
X33727238Y-56015447D01*
X33678857Y-55967066D01*
X33582095Y-55918685D01*
X33388571Y-55918685D01*
X33291809Y-55967066D01*
X32469333Y-56547638D02*
X32566095Y-56596019D01*
X32759619Y-56596019D01*
X32856380Y-56547638D01*
X32904761Y-56450876D01*
X32904761Y-56063828D01*
X32856380Y-55967066D01*
X32759619Y-55918685D01*
X32566095Y-55918685D01*
X32469333Y-55967066D01*
X32420952Y-56063828D01*
X32420952Y-56160590D01*
X32904761Y-56257352D01*
X31985523Y-55918685D02*
X31985523Y-56596019D01*
X31985523Y-56015447D02*
X31937142Y-55967066D01*
X31840380Y-55918685D01*
X31695238Y-55918685D01*
X31598476Y-55967066D01*
X31550095Y-56063828D01*
X31550095Y-56596019D01*
X31114666Y-56547638D02*
X31017904Y-56596019D01*
X30824380Y-56596019D01*
X30727619Y-56547638D01*
X30679238Y-56450876D01*
X30679238Y-56402495D01*
X30727619Y-56305733D01*
X30824380Y-56257352D01*
X30969523Y-56257352D01*
X31066285Y-56208971D01*
X31114666Y-56112209D01*
X31114666Y-56063828D01*
X31066285Y-55967066D01*
X30969523Y-55918685D01*
X30824380Y-55918685D01*
X30727619Y-55967066D01*
X29856761Y-56547638D02*
X29953523Y-56596019D01*
X30147047Y-56596019D01*
X30243809Y-56547638D01*
X30292190Y-56450876D01*
X30292190Y-56063828D01*
X30243809Y-55967066D01*
X30147047Y-55918685D01*
X29953523Y-55918685D01*
X29856761Y-55967066D01*
X29808380Y-56063828D01*
X29808380Y-56160590D01*
X30292190Y-56257352D01*
X56659809Y-58323219D02*
X56659809Y-57307219D01*
X56224380Y-58323219D02*
X56224380Y-57791028D01*
X56272761Y-57694266D01*
X56369523Y-57645885D01*
X56514666Y-57645885D01*
X56611428Y-57694266D01*
X56659809Y-57742647D01*
X55885714Y-57645885D02*
X55498666Y-57645885D01*
X55740571Y-57307219D02*
X55740571Y-58178076D01*
X55692190Y-58274838D01*
X55595428Y-58323219D01*
X55498666Y-58323219D01*
X55305142Y-57645885D02*
X54918095Y-57645885D01*
X55160000Y-57307219D02*
X55160000Y-58178076D01*
X55111619Y-58274838D01*
X55014857Y-58323219D01*
X54918095Y-58323219D01*
X54579428Y-57645885D02*
X54579428Y-58661885D01*
X54579428Y-57694266D02*
X54482666Y-57645885D01*
X54289142Y-57645885D01*
X54192380Y-57694266D01*
X54144000Y-57742647D01*
X54095619Y-57839409D01*
X54095619Y-58129695D01*
X54144000Y-58226457D01*
X54192380Y-58274838D01*
X54289142Y-58323219D01*
X54482666Y-58323219D01*
X54579428Y-58274838D01*
X53708571Y-58274838D02*
X53611809Y-58323219D01*
X53418285Y-58323219D01*
X53321523Y-58274838D01*
X53273142Y-58178076D01*
X53273142Y-58129695D01*
X53321523Y-58032933D01*
X53418285Y-57984552D01*
X53563428Y-57984552D01*
X53660190Y-57936171D01*
X53708571Y-57839409D01*
X53708571Y-57791028D01*
X53660190Y-57694266D01*
X53563428Y-57645885D01*
X53418285Y-57645885D01*
X53321523Y-57694266D01*
X52837714Y-58226457D02*
X52789333Y-58274838D01*
X52837714Y-58323219D01*
X52886095Y-58274838D01*
X52837714Y-58226457D01*
X52837714Y-58323219D01*
X52837714Y-57694266D02*
X52789333Y-57742647D01*
X52837714Y-57791028D01*
X52886095Y-57742647D01*
X52837714Y-57694266D01*
X52837714Y-57791028D01*
X51628190Y-57258838D02*
X52499047Y-58565123D01*
X50563809Y-57258838D02*
X51434666Y-58565123D01*
X49789714Y-58274838D02*
X49886476Y-58323219D01*
X50080000Y-58323219D01*
X50176761Y-58274838D01*
X50225142Y-58226457D01*
X50273523Y-58129695D01*
X50273523Y-57839409D01*
X50225142Y-57742647D01*
X50176761Y-57694266D01*
X50080000Y-57645885D01*
X49886476Y-57645885D01*
X49789714Y-57694266D01*
X48967238Y-58274838D02*
X49064000Y-58323219D01*
X49257523Y-58323219D01*
X49354285Y-58274838D01*
X49402666Y-58178076D01*
X49402666Y-57791028D01*
X49354285Y-57694266D01*
X49257523Y-57645885D01*
X49064000Y-57645885D01*
X48967238Y-57694266D01*
X48918857Y-57791028D01*
X48918857Y-57887790D01*
X49402666Y-57984552D01*
X48483428Y-58323219D02*
X48483428Y-57645885D01*
X48483428Y-57839409D02*
X48435047Y-57742647D01*
X48386666Y-57694266D01*
X48289904Y-57645885D01*
X48193142Y-57645885D01*
X47854476Y-57645885D02*
X47854476Y-58323219D01*
X47854476Y-57742647D02*
X47806095Y-57694266D01*
X47709333Y-57645885D01*
X47564190Y-57645885D01*
X47467428Y-57694266D01*
X47419047Y-57791028D01*
X47419047Y-58323219D01*
X46935238Y-57936171D02*
X46161142Y-57936171D01*
X45532190Y-58323219D02*
X45628952Y-58274838D01*
X45677333Y-58226457D01*
X45725714Y-58129695D01*
X45725714Y-57839409D01*
X45677333Y-57742647D01*
X45628952Y-57694266D01*
X45532190Y-57645885D01*
X45387047Y-57645885D01*
X45290285Y-57694266D01*
X45241904Y-57742647D01*
X45193523Y-57839409D01*
X45193523Y-58129695D01*
X45241904Y-58226457D01*
X45290285Y-58274838D01*
X45387047Y-58323219D01*
X45532190Y-58323219D01*
X44758095Y-58323219D02*
X44758095Y-57307219D01*
X44322666Y-58323219D02*
X44322666Y-57791028D01*
X44371047Y-57694266D01*
X44467809Y-57645885D01*
X44612952Y-57645885D01*
X44709714Y-57694266D01*
X44758095Y-57742647D01*
X43693714Y-58323219D02*
X43790476Y-58274838D01*
X43838857Y-58178076D01*
X43838857Y-57307219D01*
X43306666Y-58226457D02*
X43258285Y-58274838D01*
X43306666Y-58323219D01*
X43355047Y-58274838D01*
X43306666Y-58226457D01*
X43306666Y-58323219D01*
X42919619Y-57645885D02*
X42726095Y-58323219D01*
X42532571Y-57839409D01*
X42339047Y-58323219D01*
X42145523Y-57645885D01*
X41371428Y-58274838D02*
X41468190Y-58323219D01*
X41661714Y-58323219D01*
X41758476Y-58274838D01*
X41806857Y-58178076D01*
X41806857Y-57791028D01*
X41758476Y-57694266D01*
X41661714Y-57645885D01*
X41468190Y-57645885D01*
X41371428Y-57694266D01*
X41323047Y-57791028D01*
X41323047Y-57887790D01*
X41806857Y-57984552D01*
X40887619Y-58323219D02*
X40887619Y-57307219D01*
X40887619Y-57694266D02*
X40790857Y-57645885D01*
X40597333Y-57645885D01*
X40500571Y-57694266D01*
X40452190Y-57742647D01*
X40403809Y-57839409D01*
X40403809Y-58129695D01*
X40452190Y-58226457D01*
X40500571Y-58274838D01*
X40597333Y-58323219D01*
X40790857Y-58323219D01*
X40887619Y-58274838D01*
X39968380Y-58226457D02*
X39920000Y-58274838D01*
X39968380Y-58323219D01*
X40016761Y-58274838D01*
X39968380Y-58226457D01*
X39968380Y-58323219D01*
X39049142Y-58274838D02*
X39145904Y-58323219D01*
X39339428Y-58323219D01*
X39436190Y-58274838D01*
X39484571Y-58226457D01*
X39532952Y-58129695D01*
X39532952Y-57839409D01*
X39484571Y-57742647D01*
X39436190Y-57694266D01*
X39339428Y-57645885D01*
X39145904Y-57645885D01*
X39049142Y-57694266D01*
X38226666Y-58274838D02*
X38323428Y-58323219D01*
X38516952Y-58323219D01*
X38613714Y-58274838D01*
X38662095Y-58178076D01*
X38662095Y-57791028D01*
X38613714Y-57694266D01*
X38516952Y-57645885D01*
X38323428Y-57645885D01*
X38226666Y-57694266D01*
X38178285Y-57791028D01*
X38178285Y-57887790D01*
X38662095Y-57984552D01*
X37742857Y-58323219D02*
X37742857Y-57645885D01*
X37742857Y-57839409D02*
X37694476Y-57742647D01*
X37646095Y-57694266D01*
X37549333Y-57645885D01*
X37452571Y-57645885D01*
X37113904Y-57645885D02*
X37113904Y-58323219D01*
X37113904Y-57742647D02*
X37065523Y-57694266D01*
X36968761Y-57645885D01*
X36823619Y-57645885D01*
X36726857Y-57694266D01*
X36678476Y-57791028D01*
X36678476Y-58323219D01*
X36194666Y-58226457D02*
X36146285Y-58274838D01*
X36194666Y-58323219D01*
X36243047Y-58274838D01*
X36194666Y-58226457D01*
X36194666Y-58323219D01*
X35275428Y-58274838D02*
X35372190Y-58323219D01*
X35565714Y-58323219D01*
X35662476Y-58274838D01*
X35710857Y-58226457D01*
X35759238Y-58129695D01*
X35759238Y-57839409D01*
X35710857Y-57742647D01*
X35662476Y-57694266D01*
X35565714Y-57645885D01*
X35372190Y-57645885D01*
X35275428Y-57694266D01*
X34840000Y-58323219D02*
X34840000Y-57307219D01*
X34404571Y-58323219D02*
X34404571Y-57791028D01*
X34452952Y-57694266D01*
X34549714Y-57645885D01*
X34694857Y-57645885D01*
X34791619Y-57694266D01*
X34840000Y-57742647D01*
X33195047Y-57258838D02*
X34065904Y-58565123D01*
D10*
X13210298Y-65991619D02*
X13210298Y-64975619D01*
X12871631Y-65701333D01*
X12532964Y-64975619D01*
X12532964Y-65991619D01*
X12049155Y-65459428D02*
X11710488Y-65459428D01*
X11565345Y-65991619D02*
X12049155Y-65991619D01*
X12049155Y-64975619D01*
X11565345Y-64975619D01*
X11129917Y-65991619D02*
X11129917Y-64975619D01*
X10791250Y-65701333D01*
X10452583Y-64975619D01*
X10452583Y-65991619D01*
X9484964Y-64975619D02*
X9968774Y-64975619D01*
X10017155Y-65459428D01*
X9968774Y-65411047D01*
X9872012Y-65362666D01*
X9630107Y-65362666D01*
X9533345Y-65411047D01*
X9484964Y-65459428D01*
X9436583Y-65556190D01*
X9436583Y-65798095D01*
X9484964Y-65894857D01*
X9533345Y-65943238D01*
X9630107Y-65991619D01*
X9872012Y-65991619D01*
X9968774Y-65943238D01*
X10017155Y-65894857D01*
X13210298Y-60911619D02*
X13210298Y-59895619D01*
X12871631Y-60621333D01*
X12532964Y-59895619D01*
X12532964Y-60911619D01*
X12049155Y-60379428D02*
X11710488Y-60379428D01*
X11565345Y-60911619D02*
X12049155Y-60911619D01*
X12049155Y-59895619D01*
X11565345Y-59895619D01*
X11129917Y-60911619D02*
X11129917Y-59895619D01*
X10791250Y-60621333D01*
X10452583Y-59895619D01*
X10452583Y-60911619D01*
X9533345Y-60234285D02*
X9533345Y-60911619D01*
X9775250Y-59847238D02*
X10017155Y-60572952D01*
X9388202Y-60572952D01*
X13210298Y-55831619D02*
X13210298Y-54815619D01*
X12871631Y-55541333D01*
X12532964Y-54815619D01*
X12532964Y-55831619D01*
X12049155Y-55299428D02*
X11710488Y-55299428D01*
X11565345Y-55831619D02*
X12049155Y-55831619D01*
X12049155Y-54815619D01*
X11565345Y-54815619D01*
X11129917Y-55831619D02*
X11129917Y-54815619D01*
X10791250Y-55541333D01*
X10452583Y-54815619D01*
X10452583Y-55831619D01*
X10065536Y-54815619D02*
X9436583Y-54815619D01*
X9775250Y-55202666D01*
X9630107Y-55202666D01*
X9533345Y-55251047D01*
X9484964Y-55299428D01*
X9436583Y-55396190D01*
X9436583Y-55638095D01*
X9484964Y-55734857D01*
X9533345Y-55783238D01*
X9630107Y-55831619D01*
X9920393Y-55831619D01*
X10017155Y-55783238D01*
X10065536Y-55734857D01*
X13210298Y-50497619D02*
X13210298Y-49481619D01*
X12871631Y-50207333D01*
X12532964Y-49481619D01*
X12532964Y-50497619D01*
X12049155Y-49965428D02*
X11710488Y-49965428D01*
X11565345Y-50497619D02*
X12049155Y-50497619D01*
X12049155Y-49481619D01*
X11565345Y-49481619D01*
X11129917Y-50497619D02*
X11129917Y-49481619D01*
X10791250Y-50207333D01*
X10452583Y-49481619D01*
X10452583Y-50497619D01*
X10017155Y-49578380D02*
X9968774Y-49530000D01*
X9872012Y-49481619D01*
X9630107Y-49481619D01*
X9533345Y-49530000D01*
X9484964Y-49578380D01*
X9436583Y-49675142D01*
X9436583Y-49771904D01*
X9484964Y-49917047D01*
X10065536Y-50497619D01*
X9436583Y-50497619D01*
X13210298Y-45417619D02*
X13210298Y-44401619D01*
X12871631Y-45127333D01*
X12532964Y-44401619D01*
X12532964Y-45417619D01*
X12049155Y-44885428D02*
X11710488Y-44885428D01*
X11565345Y-45417619D02*
X12049155Y-45417619D01*
X12049155Y-44401619D01*
X11565345Y-44401619D01*
X11129917Y-45417619D02*
X11129917Y-44401619D01*
X10791250Y-45127333D01*
X10452583Y-44401619D01*
X10452583Y-45417619D01*
X9436583Y-45417619D02*
X10017155Y-45417619D01*
X9726869Y-45417619D02*
X9726869Y-44401619D01*
X9823631Y-44546761D01*
X9920393Y-44643523D01*
X10017155Y-44691904D01*
X13500583Y-40204571D02*
X12726488Y-40204571D01*
X13113536Y-40591619D02*
X13113536Y-39817523D01*
X11662107Y-40494857D02*
X11710488Y-40543238D01*
X11855631Y-40591619D01*
X11952393Y-40591619D01*
X12097536Y-40543238D01*
X12194298Y-40446476D01*
X12242679Y-40349714D01*
X12291060Y-40156190D01*
X12291060Y-40011047D01*
X12242679Y-39817523D01*
X12194298Y-39720761D01*
X12097536Y-39624000D01*
X11952393Y-39575619D01*
X11855631Y-39575619D01*
X11710488Y-39624000D01*
X11662107Y-39672380D01*
X11033155Y-39575619D02*
X10839631Y-39575619D01*
X10742869Y-39624000D01*
X10646107Y-39720761D01*
X10597726Y-39914285D01*
X10597726Y-40252952D01*
X10646107Y-40446476D01*
X10742869Y-40543238D01*
X10839631Y-40591619D01*
X11033155Y-40591619D01*
X11129917Y-40543238D01*
X11226679Y-40446476D01*
X11275060Y-40252952D01*
X11275060Y-39914285D01*
X11226679Y-39720761D01*
X11129917Y-39624000D01*
X11033155Y-39575619D01*
X10162298Y-40591619D02*
X10162298Y-39575619D01*
X9823631Y-40301333D01*
X9484964Y-39575619D01*
X9484964Y-40591619D01*
X10936393Y-34725428D02*
X10791250Y-34773809D01*
X10742869Y-34822190D01*
X10694488Y-34918952D01*
X10694488Y-35064095D01*
X10742869Y-35160857D01*
X10791250Y-35209238D01*
X10888012Y-35257619D01*
X11275060Y-35257619D01*
X11275060Y-34241619D01*
X10936393Y-34241619D01*
X10839631Y-34290000D01*
X10791250Y-34338380D01*
X10742869Y-34435142D01*
X10742869Y-34531904D01*
X10791250Y-34628666D01*
X10839631Y-34677047D01*
X10936393Y-34725428D01*
X11275060Y-34725428D01*
X10259060Y-34870571D02*
X9484964Y-34870571D01*
X9872012Y-35257619D02*
X9872012Y-34483523D01*
X11178298Y-29887333D02*
X10694488Y-29887333D01*
X11275060Y-30177619D02*
X10936393Y-29161619D01*
X10597726Y-30177619D01*
X10259060Y-29790571D02*
X9484964Y-29790571D01*
X11565345Y-24130000D02*
X11662107Y-24081619D01*
X11807250Y-24081619D01*
X11952393Y-24130000D01*
X12049155Y-24226761D01*
X12097536Y-24323523D01*
X12145917Y-24517047D01*
X12145917Y-24662190D01*
X12097536Y-24855714D01*
X12049155Y-24952476D01*
X11952393Y-25049238D01*
X11807250Y-25097619D01*
X11710488Y-25097619D01*
X11565345Y-25049238D01*
X11516964Y-25000857D01*
X11516964Y-24662190D01*
X11710488Y-24662190D01*
X11081536Y-25097619D02*
X11081536Y-24081619D01*
X10500964Y-25097619D01*
X10500964Y-24081619D01*
X10017155Y-25097619D02*
X10017155Y-24081619D01*
X9775250Y-24081619D01*
X9630107Y-24130000D01*
X9533345Y-24226761D01*
X9484964Y-24323523D01*
X9436583Y-24517047D01*
X9436583Y-24662190D01*
X9484964Y-24855714D01*
X9533345Y-24952476D01*
X9630107Y-25049238D01*
X9775250Y-25097619D01*
X10017155Y-25097619D01*
X11565345Y-13970000D02*
X11662107Y-13921619D01*
X11807250Y-13921619D01*
X11952393Y-13970000D01*
X12049155Y-14066761D01*
X12097536Y-14163523D01*
X12145917Y-14357047D01*
X12145917Y-14502190D01*
X12097536Y-14695714D01*
X12049155Y-14792476D01*
X11952393Y-14889238D01*
X11807250Y-14937619D01*
X11710488Y-14937619D01*
X11565345Y-14889238D01*
X11516964Y-14840857D01*
X11516964Y-14502190D01*
X11710488Y-14502190D01*
X11081536Y-14937619D02*
X11081536Y-13921619D01*
X10500964Y-14937619D01*
X10500964Y-13921619D01*
X10017155Y-14937619D02*
X10017155Y-13921619D01*
X9775250Y-13921619D01*
X9630107Y-13970000D01*
X9533345Y-14066761D01*
X9484964Y-14163523D01*
X9436583Y-14357047D01*
X9436583Y-14502190D01*
X9484964Y-14695714D01*
X9533345Y-14792476D01*
X9630107Y-14889238D01*
X9775250Y-14937619D01*
X10017155Y-14937619D01*
X12678107Y-19630571D02*
X11904012Y-19630571D01*
X12291060Y-20017619D02*
X12291060Y-19243523D01*
X11565345Y-19001619D02*
X11226679Y-20017619D01*
X10888012Y-19001619D01*
X10549345Y-20017619D02*
X10549345Y-19001619D01*
X10065536Y-20017619D02*
X10065536Y-19001619D01*
X9484964Y-20017619D01*
X9484964Y-19001619D01*
D13*
X7040000Y-37460000D02*
X7040000Y-67940000D01*
X8600000Y-37460000D02*
X400000Y-37460000D01*
X8600000Y-67940000D02*
X8600000Y-37460000D01*
X400000Y-67940000D02*
X8600000Y-67940000D01*
X400000Y-37460000D02*
X400000Y-67940000D01*
X7040000Y-22220000D02*
X7040000Y-37460000D01*
X8600000Y-22220000D02*
X400000Y-22220000D01*
X8600000Y-37460000D02*
X8600000Y-22220000D01*
X400000Y-37460000D02*
X8600000Y-37460000D01*
X400000Y-22220000D02*
X400000Y-37460000D01*
X7040000Y-12060000D02*
X7040000Y-22220000D01*
X400000Y-22220000D02*
X400000Y-12060000D01*
X8600000Y-22220000D02*
X400000Y-22220000D01*
X8600000Y-12060000D02*
X8600000Y-22220000D01*
X400000Y-12060000D02*
X8600000Y-12060000D01*
D14*
G36*
X72050737Y-14347263D02*
G01*
X72384947Y-14347263D01*
X72384947Y-13678842D01*
X72050737Y-13678842D01*
X72050737Y-14347263D01*
G37*
X72050737Y-14347263D02*
X72384947Y-14347263D01*
X72384947Y-13678842D01*
X72050737Y-13678842D01*
X72050737Y-14347263D01*
G36*
X71382316Y-14347263D02*
G01*
X71716526Y-14347263D01*
X71716526Y-14013053D01*
X71382316Y-14013053D01*
X71382316Y-14347263D01*
G37*
X71382316Y-14347263D02*
X71716526Y-14347263D01*
X71716526Y-14013053D01*
X71382316Y-14013053D01*
X71382316Y-14347263D01*
G36*
X71382316Y-13010421D02*
G01*
X71716526Y-13010421D01*
X71716526Y-13344632D01*
X71382316Y-13344632D01*
X71382316Y-13678842D01*
X72050737Y-13678842D01*
X72050737Y-12676211D01*
X71382316Y-12676211D01*
X71382316Y-13010421D01*
G37*
X71382316Y-13010421D02*
X71716526Y-13010421D01*
X71716526Y-13344632D01*
X71382316Y-13344632D01*
X71382316Y-13678842D01*
X72050737Y-13678842D01*
X72050737Y-12676211D01*
X71382316Y-12676211D01*
X71382316Y-13010421D01*
G36*
X71382316Y-12342000D02*
G01*
X72050737Y-12342000D01*
X72050737Y-12676211D01*
X72384947Y-12676211D01*
X72384947Y-12007790D01*
X71382316Y-12007790D01*
X71382316Y-12342000D01*
G37*
X71382316Y-12342000D02*
X72050737Y-12342000D01*
X72050737Y-12676211D01*
X72384947Y-12676211D01*
X72384947Y-12007790D01*
X71382316Y-12007790D01*
X71382316Y-12342000D01*
G36*
X72719158Y-12007790D02*
G01*
X73053368Y-12007790D01*
X73053368Y-11673579D01*
X72719158Y-11673579D01*
X72719158Y-12007790D01*
G37*
X72719158Y-12007790D02*
X73053368Y-12007790D01*
X73053368Y-11673579D01*
X72719158Y-11673579D01*
X72719158Y-12007790D01*
G36*
X73721789Y-10002527D02*
G01*
X73387579Y-10002527D01*
X73387579Y-9668316D01*
X73053368Y-9668316D01*
X73053368Y-10670948D01*
X73387579Y-10670948D01*
X73387579Y-10336737D01*
X74056000Y-10336737D01*
X74056000Y-9668316D01*
X73721789Y-9668316D01*
X73721789Y-10002527D01*
G37*
X73721789Y-10002527D02*
X73387579Y-10002527D01*
X73387579Y-9668316D01*
X73053368Y-9668316D01*
X73053368Y-10670948D01*
X73387579Y-10670948D01*
X73387579Y-10336737D01*
X74056000Y-10336737D01*
X74056000Y-9668316D01*
X73721789Y-9668316D01*
X73721789Y-10002527D01*
G36*
X75058631Y-10002527D02*
G01*
X74724421Y-10002527D01*
X74724421Y-9668316D01*
X74390210Y-9668316D01*
X74390210Y-10670948D01*
X74724421Y-10670948D01*
X74724421Y-10336737D01*
X75392842Y-10336737D01*
X75392842Y-9668316D01*
X75058631Y-9668316D01*
X75058631Y-10002527D01*
G37*
X75058631Y-10002527D02*
X74724421Y-10002527D01*
X74724421Y-9668316D01*
X74390210Y-9668316D01*
X74390210Y-10670948D01*
X74724421Y-10670948D01*
X74724421Y-10336737D01*
X75392842Y-10336737D01*
X75392842Y-9668316D01*
X75058631Y-9668316D01*
X75058631Y-10002527D01*
G36*
X73053368Y-11005158D02*
G01*
X73053368Y-11673579D01*
X73387579Y-11673579D01*
X73387579Y-12007790D01*
X73053368Y-12007790D01*
X73053368Y-12676211D01*
X72719158Y-12676211D01*
X72719158Y-13344632D01*
X73053368Y-13344632D01*
X73053368Y-13678842D01*
X72719158Y-13678842D01*
X72719158Y-14347263D01*
X73053368Y-14347263D01*
X73053368Y-14681474D01*
X72050737Y-14681474D01*
X72050737Y-14347263D01*
X71716526Y-14347263D01*
X71716526Y-14681474D01*
X71382316Y-14681474D01*
X71382316Y-15015684D01*
X76729684Y-15015684D01*
X76729684Y-14347263D01*
X76395473Y-14347263D01*
X76395473Y-14681474D01*
X76061263Y-14681474D01*
X76061263Y-14347263D01*
X75727052Y-14347263D01*
X75727052Y-14681474D01*
X73721789Y-14681474D01*
X73721789Y-14347263D01*
X74056000Y-14347263D01*
X74056000Y-14013053D01*
X73721789Y-14013053D01*
X73721789Y-13678842D01*
X74056000Y-13678842D01*
X74056000Y-13344632D01*
X73721789Y-13344632D01*
X73721789Y-13678842D01*
X73387579Y-13678842D01*
X73387579Y-13344632D01*
X73721789Y-13344632D01*
X74056000Y-13344632D01*
X74390210Y-13344632D01*
X74390210Y-14347263D01*
X74724421Y-14347263D01*
X74724421Y-14013053D01*
X75058631Y-14013053D01*
X75058631Y-13678842D01*
X75392842Y-13678842D01*
X75392842Y-14347263D01*
X75727052Y-14347263D01*
X76061263Y-14347263D01*
X76395473Y-14347263D01*
X76729684Y-14347263D01*
X76729684Y-11005158D01*
X76395473Y-11005158D01*
X76395473Y-11339369D01*
X76061263Y-11339369D01*
X76061263Y-11673579D01*
X76395473Y-11673579D01*
X76395473Y-12342000D01*
X76061263Y-12342000D01*
X76061263Y-13010421D01*
X76395473Y-13010421D01*
X76395473Y-14013053D01*
X76061263Y-14013053D01*
X76061263Y-13344632D01*
X75058631Y-13344632D01*
X75058631Y-13010421D01*
X75392842Y-13010421D01*
X75392842Y-12676211D01*
X74724421Y-12676211D01*
X74724421Y-13344632D01*
X74390210Y-13344632D01*
X74390210Y-13010421D01*
X74056000Y-13010421D01*
X73387579Y-13010421D01*
X73387579Y-13344632D01*
X73053368Y-13344632D01*
X73053368Y-13010421D01*
X73387579Y-13010421D01*
X74056000Y-13010421D01*
X74056000Y-12676211D01*
X74390210Y-12676211D01*
X74390210Y-12342000D01*
X74056000Y-12342000D01*
X73721789Y-12342000D01*
X73721789Y-12676211D01*
X73387579Y-12676211D01*
X73387579Y-12342000D01*
X73721789Y-12342000D01*
X74056000Y-12342000D01*
X74056000Y-12007790D01*
X73721789Y-12007790D01*
X73721789Y-11673579D01*
X74390210Y-11673579D01*
X74390210Y-12007790D01*
X74724421Y-12007790D01*
X74724421Y-11673579D01*
X75058631Y-11673579D01*
X75058631Y-11339369D01*
X75727052Y-11339369D01*
X75727052Y-10670948D01*
X76061263Y-10670948D01*
X76061263Y-11005158D01*
X76395473Y-11005158D01*
X76729684Y-11005158D01*
X76729684Y-9668316D01*
X76395473Y-9668316D01*
X76395473Y-10336737D01*
X76061263Y-10336737D01*
X76061263Y-9668316D01*
X75727052Y-9668316D01*
X75727052Y-10670948D01*
X75058631Y-10670948D01*
X75058631Y-11339369D01*
X74724421Y-11339369D01*
X74724421Y-11673579D01*
X74390210Y-11673579D01*
X74390210Y-11339369D01*
X74056000Y-11339369D01*
X74056000Y-11005158D01*
X73721789Y-11005158D01*
X73721789Y-11339369D01*
X73387579Y-11339369D01*
X73387579Y-11005158D01*
X73721789Y-11005158D01*
X73721789Y-10670948D01*
X73387579Y-10670948D01*
X73387579Y-11005158D01*
X73053368Y-11005158D01*
G37*
X73053368Y-11005158D02*
X73053368Y-11673579D01*
X73387579Y-11673579D01*
X73387579Y-12007790D01*
X73053368Y-12007790D01*
X73053368Y-12676211D01*
X72719158Y-12676211D01*
X72719158Y-13344632D01*
X73053368Y-13344632D01*
X73053368Y-13678842D01*
X72719158Y-13678842D01*
X72719158Y-14347263D01*
X73053368Y-14347263D01*
X73053368Y-14681474D01*
X72050737Y-14681474D01*
X72050737Y-14347263D01*
X71716526Y-14347263D01*
X71716526Y-14681474D01*
X71382316Y-14681474D01*
X71382316Y-15015684D01*
X76729684Y-15015684D01*
X76729684Y-14347263D01*
X76395473Y-14347263D01*
X76395473Y-14681474D01*
X76061263Y-14681474D01*
X76061263Y-14347263D01*
X75727052Y-14347263D01*
X75727052Y-14681474D01*
X73721789Y-14681474D01*
X73721789Y-14347263D01*
X74056000Y-14347263D01*
X74056000Y-14013053D01*
X73721789Y-14013053D01*
X73721789Y-13678842D01*
X74056000Y-13678842D01*
X74056000Y-13344632D01*
X73721789Y-13344632D01*
X73721789Y-13678842D01*
X73387579Y-13678842D01*
X73387579Y-13344632D01*
X73721789Y-13344632D01*
X74056000Y-13344632D01*
X74390210Y-13344632D01*
X74390210Y-14347263D01*
X74724421Y-14347263D01*
X74724421Y-14013053D01*
X75058631Y-14013053D01*
X75058631Y-13678842D01*
X75392842Y-13678842D01*
X75392842Y-14347263D01*
X75727052Y-14347263D01*
X76061263Y-14347263D01*
X76395473Y-14347263D01*
X76729684Y-14347263D01*
X76729684Y-11005158D01*
X76395473Y-11005158D01*
X76395473Y-11339369D01*
X76061263Y-11339369D01*
X76061263Y-11673579D01*
X76395473Y-11673579D01*
X76395473Y-12342000D01*
X76061263Y-12342000D01*
X76061263Y-13010421D01*
X76395473Y-13010421D01*
X76395473Y-14013053D01*
X76061263Y-14013053D01*
X76061263Y-13344632D01*
X75058631Y-13344632D01*
X75058631Y-13010421D01*
X75392842Y-13010421D01*
X75392842Y-12676211D01*
X74724421Y-12676211D01*
X74724421Y-13344632D01*
X74390210Y-13344632D01*
X74390210Y-13010421D01*
X74056000Y-13010421D01*
X73387579Y-13010421D01*
X73387579Y-13344632D01*
X73053368Y-13344632D01*
X73053368Y-13010421D01*
X73387579Y-13010421D01*
X74056000Y-13010421D01*
X74056000Y-12676211D01*
X74390210Y-12676211D01*
X74390210Y-12342000D01*
X74056000Y-12342000D01*
X73721789Y-12342000D01*
X73721789Y-12676211D01*
X73387579Y-12676211D01*
X73387579Y-12342000D01*
X73721789Y-12342000D01*
X74056000Y-12342000D01*
X74056000Y-12007790D01*
X73721789Y-12007790D01*
X73721789Y-11673579D01*
X74390210Y-11673579D01*
X74390210Y-12007790D01*
X74724421Y-12007790D01*
X74724421Y-11673579D01*
X75058631Y-11673579D01*
X75058631Y-11339369D01*
X75727052Y-11339369D01*
X75727052Y-10670948D01*
X76061263Y-10670948D01*
X76061263Y-11005158D01*
X76395473Y-11005158D01*
X76729684Y-11005158D01*
X76729684Y-9668316D01*
X76395473Y-9668316D01*
X76395473Y-10336737D01*
X76061263Y-10336737D01*
X76061263Y-9668316D01*
X75727052Y-9668316D01*
X75727052Y-10670948D01*
X75058631Y-10670948D01*
X75058631Y-11339369D01*
X74724421Y-11339369D01*
X74724421Y-11673579D01*
X74390210Y-11673579D01*
X74390210Y-11339369D01*
X74056000Y-11339369D01*
X74056000Y-11005158D01*
X73721789Y-11005158D01*
X73721789Y-11339369D01*
X73387579Y-11339369D01*
X73387579Y-11005158D01*
X73721789Y-11005158D01*
X73721789Y-10670948D01*
X73387579Y-10670948D01*
X73387579Y-11005158D01*
X73053368Y-11005158D01*
G36*
X74056000Y-11005158D02*
G01*
X74390210Y-11005158D01*
X74390210Y-10670948D01*
X74056000Y-10670948D01*
X74056000Y-11005158D01*
G37*
X74056000Y-11005158D02*
X74390210Y-11005158D01*
X74390210Y-10670948D01*
X74056000Y-10670948D01*
X74056000Y-11005158D01*
G36*
X71382316Y-11673579D02*
G01*
X72050737Y-11673579D01*
X72050737Y-11339369D01*
X71382316Y-11339369D01*
X71382316Y-11673579D01*
G37*
X71382316Y-11673579D02*
X72050737Y-11673579D01*
X72050737Y-11339369D01*
X71382316Y-11339369D01*
X71382316Y-11673579D01*
G36*
X72384947Y-11339369D02*
G01*
X72719158Y-11339369D01*
X72719158Y-10670948D01*
X72384947Y-10670948D01*
X72384947Y-11339369D01*
G37*
X72384947Y-11339369D02*
X72719158Y-11339369D01*
X72719158Y-10670948D01*
X72384947Y-10670948D01*
X72384947Y-11339369D01*
G36*
X71382316Y-11005158D02*
G01*
X71716526Y-11005158D01*
X71716526Y-10670948D01*
X71382316Y-10670948D01*
X71382316Y-11005158D01*
G37*
X71382316Y-11005158D02*
X71716526Y-11005158D01*
X71716526Y-10670948D01*
X71382316Y-10670948D01*
X71382316Y-11005158D01*
G36*
X71382316Y-10336737D02*
G01*
X71716526Y-10336737D01*
X71716526Y-10002527D01*
X71382316Y-10002527D01*
X71382316Y-10336737D01*
G37*
X71382316Y-10336737D02*
X71716526Y-10336737D01*
X71716526Y-10002527D01*
X71382316Y-10002527D01*
X71382316Y-10336737D01*
G36*
X71716526Y-10002527D02*
G01*
X72050737Y-10002527D01*
X72050737Y-9668316D01*
X71716526Y-9668316D01*
X71716526Y-10002527D01*
G37*
X71716526Y-10002527D02*
X72050737Y-10002527D01*
X72050737Y-9668316D01*
X71716526Y-9668316D01*
X71716526Y-10002527D01*
G36*
X72384947Y-10002527D02*
G01*
X72719158Y-10002527D01*
X72719158Y-9668316D01*
X72384947Y-9668316D01*
X72384947Y-10002527D01*
G37*
X72384947Y-10002527D02*
X72719158Y-10002527D01*
X72719158Y-9668316D01*
X72384947Y-9668316D01*
X72384947Y-10002527D01*
G36*
X75392842Y-12342000D02*
G01*
X75727052Y-12342000D01*
X75727052Y-12007790D01*
X75392842Y-12007790D01*
X75392842Y-12342000D01*
G37*
X75392842Y-12342000D02*
X75727052Y-12342000D01*
X75727052Y-12007790D01*
X75392842Y-12007790D01*
X75392842Y-12342000D01*
G36*
X35659570Y-66064848D02*
G01*
X35660189Y-66151931D01*
X36111914Y-66610891D01*
X36563639Y-67069852D01*
X36563968Y-67280471D01*
X36564297Y-67491089D01*
X36839390Y-67491089D01*
X36846478Y-67544530D01*
X36849162Y-67568888D01*
X36853687Y-67614759D01*
X36859809Y-67679405D01*
X36867288Y-67760091D01*
X36875881Y-67854081D01*
X36885346Y-67958637D01*
X36895442Y-68071025D01*
X36905926Y-68188507D01*
X36916556Y-68308348D01*
X36927091Y-68427811D01*
X36937287Y-68544159D01*
X36946905Y-68654657D01*
X36955700Y-68756569D01*
X36963432Y-68847158D01*
X36969858Y-68923687D01*
X36974737Y-68983421D01*
X36977825Y-69023624D01*
X36978883Y-69041559D01*
X36978882Y-69041644D01*
X36971173Y-69056035D01*
X36948019Y-69085748D01*
X36909105Y-69131131D01*
X36854116Y-69192529D01*
X36782736Y-69270288D01*
X36694651Y-69364754D01*
X36589546Y-69476272D01*
X36467105Y-69605188D01*
X36432690Y-69641287D01*
X35886863Y-70213416D01*
X35975119Y-70301436D01*
X36046515Y-70223758D01*
X36072634Y-70195686D01*
X36113434Y-70152274D01*
X36166223Y-70096366D01*
X36228309Y-70030808D01*
X36297000Y-69958441D01*
X36369604Y-69882112D01*
X36413040Y-69836524D01*
X36494584Y-69751119D01*
X36560496Y-69682710D01*
X36612456Y-69630053D01*
X36652145Y-69591905D01*
X36681243Y-69567020D01*
X36701431Y-69554156D01*
X36714390Y-69552068D01*
X36721800Y-69559513D01*
X36725342Y-69575246D01*
X36726697Y-69598023D01*
X36726879Y-69604239D01*
X36736297Y-69647061D01*
X36759503Y-69698819D01*
X36791864Y-69751328D01*
X36828748Y-69796403D01*
X36843507Y-69810328D01*
X36919233Y-69859047D01*
X37007692Y-69886306D01*
X37085900Y-69892773D01*
X37174532Y-69880576D01*
X37256388Y-69844813D01*
X37328836Y-69786722D01*
X37342203Y-69772262D01*
X37391082Y-69716733D01*
X38236674Y-69716733D01*
X38236674Y-69892773D01*
X38463010Y-69892773D01*
X38463010Y-69810531D01*
X38465850Y-69754386D01*
X38475393Y-69715416D01*
X38486991Y-69694219D01*
X38495277Y-69679052D01*
X38502373Y-69657062D01*
X38508748Y-69624987D01*
X38514872Y-69579569D01*
X38521216Y-69517548D01*
X38528250Y-69435662D01*
X38533066Y-69374746D01*
X38555161Y-69089343D01*
X39097565Y-69638805D01*
X39195637Y-69738228D01*
X39289784Y-69833815D01*
X39378285Y-69923810D01*
X39459420Y-70006457D01*
X39531469Y-70080001D01*
X39592712Y-70142684D01*
X39641427Y-70192752D01*
X39675896Y-70228448D01*
X39694379Y-70247995D01*
X39724743Y-70278944D01*
X39750071Y-70300530D01*
X39763695Y-70307723D01*
X39781095Y-70299297D01*
X39806460Y-70278245D01*
X39815058Y-70269671D01*
X39851514Y-70231620D01*
X39650802Y-70027658D01*
X39599596Y-69975699D01*
X39533569Y-69908820D01*
X39455618Y-69829950D01*
X39368638Y-69742014D01*
X39275526Y-69647941D01*
X39179179Y-69550658D01*
X39082492Y-69453093D01*
X39013134Y-69383145D01*
X38907703Y-69276550D01*
X38819129Y-69186307D01*
X38746281Y-69111192D01*
X38688023Y-69049986D01*
X38643225Y-69001466D01*
X38621021Y-68976129D01*
X38442724Y-68976129D01*
X38420401Y-69261555D01*
X38413669Y-69345219D01*
X38407157Y-69421727D01*
X38401234Y-69487081D01*
X38396268Y-69537281D01*
X38392629Y-69568329D01*
X38391458Y-69575273D01*
X38384838Y-69603565D01*
X37435364Y-69603565D01*
X37429026Y-69524606D01*
X37409890Y-69431315D01*
X37369846Y-69348791D01*
X37311418Y-69280038D01*
X37237129Y-69228063D01*
X37153748Y-69196863D01*
X37126698Y-69182228D01*
X37113156Y-69150819D01*
X37112872Y-69149434D01*
X37111247Y-69136174D01*
X37113256Y-69122595D01*
X37120858Y-69106181D01*
X37136016Y-69084411D01*
X37160688Y-69054767D01*
X37196836Y-69014732D01*
X37246420Y-68961785D01*
X37311401Y-68893409D01*
X37315599Y-68889005D01*
X37385493Y-68815611D01*
X37459800Y-68737437D01*
X37533414Y-68659864D01*
X37601229Y-68588275D01*
X37658140Y-68528051D01*
X37670832Y-68514587D01*
X37719487Y-68463820D01*
X37762709Y-68420375D01*
X37797395Y-68387241D01*
X37820444Y-68367405D01*
X37828182Y-68363046D01*
X37839722Y-68372170D01*
X37866710Y-68397200D01*
X37907021Y-68436052D01*
X37958529Y-68486643D01*
X38019109Y-68546888D01*
X38086636Y-68614704D01*
X38141826Y-68670565D01*
X38442724Y-68976129D01*
X38621021Y-68976129D01*
X38610751Y-68964411D01*
X38589471Y-68937599D01*
X38578251Y-68919808D01*
X38575754Y-68911570D01*
X38576700Y-68893590D01*
X38579573Y-68852892D01*
X38584187Y-68791819D01*
X38590358Y-68712713D01*
X38597898Y-68617914D01*
X38606621Y-68509767D01*
X38616343Y-68390612D01*
X38626876Y-68262791D01*
X38635365Y-68160635D01*
X38683396Y-67584674D01*
X38559805Y-67584674D01*
X38559273Y-67597104D01*
X38556769Y-67632110D01*
X38552496Y-67687215D01*
X38546653Y-67759943D01*
X38539443Y-67847814D01*
X38531066Y-67948351D01*
X38521723Y-68059077D01*
X38512758Y-68164205D01*
X38502602Y-68283483D01*
X38493142Y-68396080D01*
X38484596Y-68499305D01*
X38477179Y-68590473D01*
X38471108Y-68666895D01*
X38466601Y-68725883D01*
X38463873Y-68764749D01*
X38463116Y-68779844D01*
X38461935Y-68789238D01*
X38457256Y-68792966D01*
X38447276Y-68789471D01*
X38430190Y-68777199D01*
X38404196Y-68754594D01*
X38367490Y-68720100D01*
X38318267Y-68672162D01*
X38254726Y-68609224D01*
X38187305Y-68541968D01*
X37911601Y-68266477D01*
X37913533Y-68264406D01*
X37731290Y-68264406D01*
X37722984Y-68275780D01*
X37699733Y-68302563D01*
X37663865Y-68342292D01*
X37617713Y-68392507D01*
X37563606Y-68450746D01*
X37503874Y-68514547D01*
X37440848Y-68581449D01*
X37376858Y-68648990D01*
X37314236Y-68714710D01*
X37255310Y-68776146D01*
X37202412Y-68830837D01*
X37157872Y-68876322D01*
X37124020Y-68910138D01*
X37103188Y-68929826D01*
X37097506Y-68933837D01*
X37095634Y-68920891D01*
X37091746Y-68885134D01*
X37086057Y-68828804D01*
X37078781Y-68754140D01*
X37070131Y-68663380D01*
X37060322Y-68558762D01*
X37049566Y-68442526D01*
X37038079Y-68316908D01*
X37028907Y-68215618D01*
X37017174Y-68084279D01*
X37006335Y-67960552D01*
X36996570Y-67846681D01*
X36988063Y-67744911D01*
X36980995Y-67657487D01*
X36975549Y-67586653D01*
X36971908Y-67534653D01*
X36970253Y-67503732D01*
X36970442Y-67495703D01*
X36980334Y-67502854D01*
X37005524Y-67525841D01*
X37043810Y-67562439D01*
X37092989Y-67610422D01*
X37150861Y-67667566D01*
X37215222Y-67731647D01*
X37283871Y-67800438D01*
X37354605Y-67871716D01*
X37425222Y-67943255D01*
X37493520Y-68012830D01*
X37557296Y-68078217D01*
X37614350Y-68137191D01*
X37662478Y-68187527D01*
X37699478Y-68226999D01*
X37723148Y-68253383D01*
X37731290Y-68264406D01*
X37913533Y-68264406D01*
X38014409Y-68156295D01*
X38066768Y-68100377D01*
X38125535Y-68037948D01*
X38188385Y-67971443D01*
X38252995Y-67903298D01*
X38317042Y-67835948D01*
X38378203Y-67771828D01*
X38434153Y-67713372D01*
X38482570Y-67663018D01*
X38521130Y-67623198D01*
X38547509Y-67596350D01*
X38559384Y-67584908D01*
X38559805Y-67584674D01*
X38683396Y-67584674D01*
X38695401Y-67440726D01*
X39295938Y-66809158D01*
X39896475Y-66177589D01*
X39896034Y-66089315D01*
X39895592Y-66001040D01*
X39798583Y-66104666D01*
X39744291Y-66162463D01*
X39680192Y-66230368D01*
X39608016Y-66306572D01*
X39529492Y-66389269D01*
X39446349Y-66476653D01*
X39360319Y-66566915D01*
X39273130Y-66658250D01*
X39186513Y-66748849D01*
X39102197Y-66836907D01*
X39021912Y-66920615D01*
X38947387Y-66998167D01*
X38880354Y-67067757D01*
X38822541Y-67127576D01*
X38775679Y-67175818D01*
X38741496Y-67210676D01*
X38721724Y-67230343D01*
X38717390Y-67234116D01*
X38717092Y-67220992D01*
X38718731Y-67187389D01*
X38722023Y-67137880D01*
X38726682Y-67077037D01*
X38728682Y-67052732D01*
X38743577Y-66874951D01*
X38626955Y-66874951D01*
X38620934Y-66903243D01*
X38617863Y-66925618D01*
X38613548Y-66967717D01*
X38608488Y-67024178D01*
X38603181Y-67089635D01*
X38601344Y-67113862D01*
X38595927Y-67183421D01*
X38590459Y-67248018D01*
X38585488Y-67301548D01*
X38581561Y-67337910D01*
X38580675Y-67344509D01*
X38577334Y-67358056D01*
X38570101Y-67373914D01*
X38557440Y-67393861D01*
X38537811Y-67419673D01*
X38509678Y-67453129D01*
X38471502Y-67496007D01*
X38421746Y-67550083D01*
X38358871Y-67617136D01*
X38281341Y-67698943D01*
X38202251Y-67781950D01*
X38123564Y-67864094D01*
X38050112Y-67940169D01*
X37983724Y-68008325D01*
X37926227Y-68066712D01*
X37879451Y-68113481D01*
X37845224Y-68146782D01*
X37825373Y-68164767D01*
X37821140Y-68167442D01*
X37810003Y-68157741D01*
X37783971Y-68132441D01*
X37745570Y-68094082D01*
X37697328Y-68045200D01*
X37641770Y-67988334D01*
X37601592Y-67946906D01*
X37391831Y-67730000D01*
X38010337Y-67730000D01*
X38010337Y-67491089D01*
X37255881Y-67491089D01*
X37255881Y-67597542D01*
X37117565Y-67459654D01*
X37019447Y-67361840D01*
X36828357Y-67361840D01*
X36826529Y-67377270D01*
X36817277Y-67385867D01*
X36794950Y-67389613D01*
X36753895Y-67390489D01*
X36746624Y-67390495D01*
X36664891Y-67390495D01*
X36664891Y-67171172D01*
X36746624Y-67252179D01*
X36792730Y-67301428D01*
X36820306Y-67339159D01*
X36828357Y-67361840D01*
X37019447Y-67361840D01*
X36979248Y-67321766D01*
X36979248Y-67198952D01*
X36978863Y-67142450D01*
X36977100Y-67106505D01*
X36973050Y-67086530D01*
X36965801Y-67077937D01*
X36954870Y-67076139D01*
X36942712Y-67073498D01*
X36933727Y-67062912D01*
X36926826Y-67040381D01*
X36920924Y-67001909D01*
X36914935Y-66943498D01*
X36913013Y-66922104D01*
X36908852Y-66874951D01*
X38626955Y-66874951D01*
X38743577Y-66874951D01*
X38903109Y-66874951D01*
X38903109Y-66761782D01*
X38835314Y-66761782D01*
X38795662Y-66760696D01*
X38774116Y-66755454D01*
X38771480Y-66752334D01*
X38632616Y-66752334D01*
X38625308Y-66759462D01*
X38599993Y-66761662D01*
X38582908Y-66761782D01*
X38525881Y-66761782D01*
X38313221Y-66761782D01*
X36898698Y-66761782D01*
X36946542Y-66712786D01*
X37020850Y-66652324D01*
X37112816Y-66605691D01*
X37223998Y-66572249D01*
X37334471Y-66553753D01*
X37406773Y-66545122D01*
X37406773Y-66636040D01*
X37985188Y-66636040D01*
X37985188Y-66532893D01*
X38070065Y-66541496D01*
X38129368Y-66548756D01*
X38192551Y-66558379D01*
X38230386Y-66565252D01*
X38305832Y-66580407D01*
X38309526Y-66671095D01*
X38313221Y-66761782D01*
X38525881Y-66761782D01*
X38525881Y-66711485D01*
X38527544Y-66679976D01*
X38531697Y-66662463D01*
X38533371Y-66661188D01*
X38551987Y-66669254D01*
X38579183Y-66688820D01*
X38606448Y-66712944D01*
X38625267Y-66734682D01*
X38626943Y-66737508D01*
X38632616Y-66752334D01*
X38771480Y-66752334D01*
X38763662Y-66743081D01*
X38759442Y-66729604D01*
X38742219Y-66694627D01*
X38709138Y-66652579D01*
X38665893Y-66609356D01*
X38618174Y-66570854D01*
X38586830Y-66550801D01*
X38551123Y-66528851D01*
X38532819Y-66510411D01*
X38526388Y-66488668D01*
X38525894Y-66475718D01*
X38525894Y-66472575D01*
X37884594Y-66472575D01*
X37884594Y-66535446D01*
X37507367Y-66535446D01*
X37507367Y-66472575D01*
X37884594Y-66472575D01*
X38525894Y-66472575D01*
X38525881Y-66434852D01*
X38420048Y-66434852D01*
X38371355Y-66436029D01*
X38333405Y-66439165D01*
X38312308Y-66443671D01*
X38310023Y-66445495D01*
X38296641Y-66448295D01*
X38264074Y-66447148D01*
X38217916Y-66442393D01*
X38186376Y-66438003D01*
X38129188Y-66429378D01*
X38076886Y-66421591D01*
X38037582Y-66415847D01*
X38026055Y-66414215D01*
X37995937Y-66404888D01*
X37985188Y-66390272D01*
X37981920Y-66384320D01*
X37970230Y-66379778D01*
X37947288Y-66376470D01*
X37910265Y-66374215D01*
X37856332Y-66372834D01*
X37782660Y-66372150D01*
X37695980Y-66371980D01*
X37603471Y-66372077D01*
X37533094Y-66372530D01*
X37481836Y-66373590D01*
X37446680Y-66375503D01*
X37424611Y-66378519D01*
X37412615Y-66382885D01*
X37407676Y-66388849D01*
X37406773Y-66395784D01*
X37399079Y-66417795D01*
X37373879Y-66430321D01*
X37327991Y-66434788D01*
X37319736Y-66434852D01*
X37242027Y-66442868D01*
X37153767Y-66464936D01*
X37062915Y-66498084D01*
X36977430Y-66539339D01*
X36905274Y-66585731D01*
X36895928Y-66593082D01*
X36865467Y-66616998D01*
X36847428Y-66626576D01*
X36834831Y-66623480D01*
X36821900Y-66610704D01*
X36783707Y-66585678D01*
X36734002Y-66576071D01*
X36680476Y-66581067D01*
X36630822Y-66599851D01*
X36592733Y-66631606D01*
X36589975Y-66635297D01*
X36561474Y-66694575D01*
X36556172Y-66755934D01*
X36573482Y-66814427D01*
X36612820Y-66865104D01*
X36617630Y-66869289D01*
X36645560Y-66889167D01*
X36673898Y-66897921D01*
X36713737Y-66898553D01*
X36723689Y-66897992D01*
X36762668Y-66896562D01*
X36782746Y-66899839D01*
X36790015Y-66909728D01*
X36790760Y-66918961D01*
X36792284Y-66945744D01*
X36796065Y-66986025D01*
X36798782Y-67010124D01*
X36802723Y-67048401D01*
X36801084Y-67067996D01*
X36791579Y-67075158D01*
X36774649Y-67076139D01*
X36764608Y-67072901D01*
X36748410Y-67062420D01*
X36724855Y-67043548D01*
X36692743Y-67015135D01*
X36650872Y-66976035D01*
X36598043Y-66925097D01*
X36533055Y-66861173D01*
X36454709Y-66783114D01*
X36361803Y-66689772D01*
X36253137Y-66579998D01*
X36200769Y-66526952D01*
X35658951Y-65977767D01*
X35659570Y-66064848D01*
G37*
X35659570Y-66064848D02*
X35660189Y-66151931D01*
X36111914Y-66610891D01*
X36563639Y-67069852D01*
X36563968Y-67280471D01*
X36564297Y-67491089D01*
X36839390Y-67491089D01*
X36846478Y-67544530D01*
X36849162Y-67568888D01*
X36853687Y-67614759D01*
X36859809Y-67679405D01*
X36867288Y-67760091D01*
X36875881Y-67854081D01*
X36885346Y-67958637D01*
X36895442Y-68071025D01*
X36905926Y-68188507D01*
X36916556Y-68308348D01*
X36927091Y-68427811D01*
X36937287Y-68544159D01*
X36946905Y-68654657D01*
X36955700Y-68756569D01*
X36963432Y-68847158D01*
X36969858Y-68923687D01*
X36974737Y-68983421D01*
X36977825Y-69023624D01*
X36978883Y-69041559D01*
X36978882Y-69041644D01*
X36971173Y-69056035D01*
X36948019Y-69085748D01*
X36909105Y-69131131D01*
X36854116Y-69192529D01*
X36782736Y-69270288D01*
X36694651Y-69364754D01*
X36589546Y-69476272D01*
X36467105Y-69605188D01*
X36432690Y-69641287D01*
X35886863Y-70213416D01*
X35975119Y-70301436D01*
X36046515Y-70223758D01*
X36072634Y-70195686D01*
X36113434Y-70152274D01*
X36166223Y-70096366D01*
X36228309Y-70030808D01*
X36297000Y-69958441D01*
X36369604Y-69882112D01*
X36413040Y-69836524D01*
X36494584Y-69751119D01*
X36560496Y-69682710D01*
X36612456Y-69630053D01*
X36652145Y-69591905D01*
X36681243Y-69567020D01*
X36701431Y-69554156D01*
X36714390Y-69552068D01*
X36721800Y-69559513D01*
X36725342Y-69575246D01*
X36726697Y-69598023D01*
X36726879Y-69604239D01*
X36736297Y-69647061D01*
X36759503Y-69698819D01*
X36791864Y-69751328D01*
X36828748Y-69796403D01*
X36843507Y-69810328D01*
X36919233Y-69859047D01*
X37007692Y-69886306D01*
X37085900Y-69892773D01*
X37174532Y-69880576D01*
X37256388Y-69844813D01*
X37328836Y-69786722D01*
X37342203Y-69772262D01*
X37391082Y-69716733D01*
X38236674Y-69716733D01*
X38236674Y-69892773D01*
X38463010Y-69892773D01*
X38463010Y-69810531D01*
X38465850Y-69754386D01*
X38475393Y-69715416D01*
X38486991Y-69694219D01*
X38495277Y-69679052D01*
X38502373Y-69657062D01*
X38508748Y-69624987D01*
X38514872Y-69579569D01*
X38521216Y-69517548D01*
X38528250Y-69435662D01*
X38533066Y-69374746D01*
X38555161Y-69089343D01*
X39097565Y-69638805D01*
X39195637Y-69738228D01*
X39289784Y-69833815D01*
X39378285Y-69923810D01*
X39459420Y-70006457D01*
X39531469Y-70080001D01*
X39592712Y-70142684D01*
X39641427Y-70192752D01*
X39675896Y-70228448D01*
X39694379Y-70247995D01*
X39724743Y-70278944D01*
X39750071Y-70300530D01*
X39763695Y-70307723D01*
X39781095Y-70299297D01*
X39806460Y-70278245D01*
X39815058Y-70269671D01*
X39851514Y-70231620D01*
X39650802Y-70027658D01*
X39599596Y-69975699D01*
X39533569Y-69908820D01*
X39455618Y-69829950D01*
X39368638Y-69742014D01*
X39275526Y-69647941D01*
X39179179Y-69550658D01*
X39082492Y-69453093D01*
X39013134Y-69383145D01*
X38907703Y-69276550D01*
X38819129Y-69186307D01*
X38746281Y-69111192D01*
X38688023Y-69049986D01*
X38643225Y-69001466D01*
X38621021Y-68976129D01*
X38442724Y-68976129D01*
X38420401Y-69261555D01*
X38413669Y-69345219D01*
X38407157Y-69421727D01*
X38401234Y-69487081D01*
X38396268Y-69537281D01*
X38392629Y-69568329D01*
X38391458Y-69575273D01*
X38384838Y-69603565D01*
X37435364Y-69603565D01*
X37429026Y-69524606D01*
X37409890Y-69431315D01*
X37369846Y-69348791D01*
X37311418Y-69280038D01*
X37237129Y-69228063D01*
X37153748Y-69196863D01*
X37126698Y-69182228D01*
X37113156Y-69150819D01*
X37112872Y-69149434D01*
X37111247Y-69136174D01*
X37113256Y-69122595D01*
X37120858Y-69106181D01*
X37136016Y-69084411D01*
X37160688Y-69054767D01*
X37196836Y-69014732D01*
X37246420Y-68961785D01*
X37311401Y-68893409D01*
X37315599Y-68889005D01*
X37385493Y-68815611D01*
X37459800Y-68737437D01*
X37533414Y-68659864D01*
X37601229Y-68588275D01*
X37658140Y-68528051D01*
X37670832Y-68514587D01*
X37719487Y-68463820D01*
X37762709Y-68420375D01*
X37797395Y-68387241D01*
X37820444Y-68367405D01*
X37828182Y-68363046D01*
X37839722Y-68372170D01*
X37866710Y-68397200D01*
X37907021Y-68436052D01*
X37958529Y-68486643D01*
X38019109Y-68546888D01*
X38086636Y-68614704D01*
X38141826Y-68670565D01*
X38442724Y-68976129D01*
X38621021Y-68976129D01*
X38610751Y-68964411D01*
X38589471Y-68937599D01*
X38578251Y-68919808D01*
X38575754Y-68911570D01*
X38576700Y-68893590D01*
X38579573Y-68852892D01*
X38584187Y-68791819D01*
X38590358Y-68712713D01*
X38597898Y-68617914D01*
X38606621Y-68509767D01*
X38616343Y-68390612D01*
X38626876Y-68262791D01*
X38635365Y-68160635D01*
X38683396Y-67584674D01*
X38559805Y-67584674D01*
X38559273Y-67597104D01*
X38556769Y-67632110D01*
X38552496Y-67687215D01*
X38546653Y-67759943D01*
X38539443Y-67847814D01*
X38531066Y-67948351D01*
X38521723Y-68059077D01*
X38512758Y-68164205D01*
X38502602Y-68283483D01*
X38493142Y-68396080D01*
X38484596Y-68499305D01*
X38477179Y-68590473D01*
X38471108Y-68666895D01*
X38466601Y-68725883D01*
X38463873Y-68764749D01*
X38463116Y-68779844D01*
X38461935Y-68789238D01*
X38457256Y-68792966D01*
X38447276Y-68789471D01*
X38430190Y-68777199D01*
X38404196Y-68754594D01*
X38367490Y-68720100D01*
X38318267Y-68672162D01*
X38254726Y-68609224D01*
X38187305Y-68541968D01*
X37911601Y-68266477D01*
X37913533Y-68264406D01*
X37731290Y-68264406D01*
X37722984Y-68275780D01*
X37699733Y-68302563D01*
X37663865Y-68342292D01*
X37617713Y-68392507D01*
X37563606Y-68450746D01*
X37503874Y-68514547D01*
X37440848Y-68581449D01*
X37376858Y-68648990D01*
X37314236Y-68714710D01*
X37255310Y-68776146D01*
X37202412Y-68830837D01*
X37157872Y-68876322D01*
X37124020Y-68910138D01*
X37103188Y-68929826D01*
X37097506Y-68933837D01*
X37095634Y-68920891D01*
X37091746Y-68885134D01*
X37086057Y-68828804D01*
X37078781Y-68754140D01*
X37070131Y-68663380D01*
X37060322Y-68558762D01*
X37049566Y-68442526D01*
X37038079Y-68316908D01*
X37028907Y-68215618D01*
X37017174Y-68084279D01*
X37006335Y-67960552D01*
X36996570Y-67846681D01*
X36988063Y-67744911D01*
X36980995Y-67657487D01*
X36975549Y-67586653D01*
X36971908Y-67534653D01*
X36970253Y-67503732D01*
X36970442Y-67495703D01*
X36980334Y-67502854D01*
X37005524Y-67525841D01*
X37043810Y-67562439D01*
X37092989Y-67610422D01*
X37150861Y-67667566D01*
X37215222Y-67731647D01*
X37283871Y-67800438D01*
X37354605Y-67871716D01*
X37425222Y-67943255D01*
X37493520Y-68012830D01*
X37557296Y-68078217D01*
X37614350Y-68137191D01*
X37662478Y-68187527D01*
X37699478Y-68226999D01*
X37723148Y-68253383D01*
X37731290Y-68264406D01*
X37913533Y-68264406D01*
X38014409Y-68156295D01*
X38066768Y-68100377D01*
X38125535Y-68037948D01*
X38188385Y-67971443D01*
X38252995Y-67903298D01*
X38317042Y-67835948D01*
X38378203Y-67771828D01*
X38434153Y-67713372D01*
X38482570Y-67663018D01*
X38521130Y-67623198D01*
X38547509Y-67596350D01*
X38559384Y-67584908D01*
X38559805Y-67584674D01*
X38683396Y-67584674D01*
X38695401Y-67440726D01*
X39295938Y-66809158D01*
X39896475Y-66177589D01*
X39896034Y-66089315D01*
X39895592Y-66001040D01*
X39798583Y-66104666D01*
X39744291Y-66162463D01*
X39680192Y-66230368D01*
X39608016Y-66306572D01*
X39529492Y-66389269D01*
X39446349Y-66476653D01*
X39360319Y-66566915D01*
X39273130Y-66658250D01*
X39186513Y-66748849D01*
X39102197Y-66836907D01*
X39021912Y-66920615D01*
X38947387Y-66998167D01*
X38880354Y-67067757D01*
X38822541Y-67127576D01*
X38775679Y-67175818D01*
X38741496Y-67210676D01*
X38721724Y-67230343D01*
X38717390Y-67234116D01*
X38717092Y-67220992D01*
X38718731Y-67187389D01*
X38722023Y-67137880D01*
X38726682Y-67077037D01*
X38728682Y-67052732D01*
X38743577Y-66874951D01*
X38626955Y-66874951D01*
X38620934Y-66903243D01*
X38617863Y-66925618D01*
X38613548Y-66967717D01*
X38608488Y-67024178D01*
X38603181Y-67089635D01*
X38601344Y-67113862D01*
X38595927Y-67183421D01*
X38590459Y-67248018D01*
X38585488Y-67301548D01*
X38581561Y-67337910D01*
X38580675Y-67344509D01*
X38577334Y-67358056D01*
X38570101Y-67373914D01*
X38557440Y-67393861D01*
X38537811Y-67419673D01*
X38509678Y-67453129D01*
X38471502Y-67496007D01*
X38421746Y-67550083D01*
X38358871Y-67617136D01*
X38281341Y-67698943D01*
X38202251Y-67781950D01*
X38123564Y-67864094D01*
X38050112Y-67940169D01*
X37983724Y-68008325D01*
X37926227Y-68066712D01*
X37879451Y-68113481D01*
X37845224Y-68146782D01*
X37825373Y-68164767D01*
X37821140Y-68167442D01*
X37810003Y-68157741D01*
X37783971Y-68132441D01*
X37745570Y-68094082D01*
X37697328Y-68045200D01*
X37641770Y-67988334D01*
X37601592Y-67946906D01*
X37391831Y-67730000D01*
X38010337Y-67730000D01*
X38010337Y-67491089D01*
X37255881Y-67491089D01*
X37255881Y-67597542D01*
X37117565Y-67459654D01*
X37019447Y-67361840D01*
X36828357Y-67361840D01*
X36826529Y-67377270D01*
X36817277Y-67385867D01*
X36794950Y-67389613D01*
X36753895Y-67390489D01*
X36746624Y-67390495D01*
X36664891Y-67390495D01*
X36664891Y-67171172D01*
X36746624Y-67252179D01*
X36792730Y-67301428D01*
X36820306Y-67339159D01*
X36828357Y-67361840D01*
X37019447Y-67361840D01*
X36979248Y-67321766D01*
X36979248Y-67198952D01*
X36978863Y-67142450D01*
X36977100Y-67106505D01*
X36973050Y-67086530D01*
X36965801Y-67077937D01*
X36954870Y-67076139D01*
X36942712Y-67073498D01*
X36933727Y-67062912D01*
X36926826Y-67040381D01*
X36920924Y-67001909D01*
X36914935Y-66943498D01*
X36913013Y-66922104D01*
X36908852Y-66874951D01*
X38626955Y-66874951D01*
X38743577Y-66874951D01*
X38903109Y-66874951D01*
X38903109Y-66761782D01*
X38835314Y-66761782D01*
X38795662Y-66760696D01*
X38774116Y-66755454D01*
X38771480Y-66752334D01*
X38632616Y-66752334D01*
X38625308Y-66759462D01*
X38599993Y-66761662D01*
X38582908Y-66761782D01*
X38525881Y-66761782D01*
X38313221Y-66761782D01*
X36898698Y-66761782D01*
X36946542Y-66712786D01*
X37020850Y-66652324D01*
X37112816Y-66605691D01*
X37223998Y-66572249D01*
X37334471Y-66553753D01*
X37406773Y-66545122D01*
X37406773Y-66636040D01*
X37985188Y-66636040D01*
X37985188Y-66532893D01*
X38070065Y-66541496D01*
X38129368Y-66548756D01*
X38192551Y-66558379D01*
X38230386Y-66565252D01*
X38305832Y-66580407D01*
X38309526Y-66671095D01*
X38313221Y-66761782D01*
X38525881Y-66761782D01*
X38525881Y-66711485D01*
X38527544Y-66679976D01*
X38531697Y-66662463D01*
X38533371Y-66661188D01*
X38551987Y-66669254D01*
X38579183Y-66688820D01*
X38606448Y-66712944D01*
X38625267Y-66734682D01*
X38626943Y-66737508D01*
X38632616Y-66752334D01*
X38771480Y-66752334D01*
X38763662Y-66743081D01*
X38759442Y-66729604D01*
X38742219Y-66694627D01*
X38709138Y-66652579D01*
X38665893Y-66609356D01*
X38618174Y-66570854D01*
X38586830Y-66550801D01*
X38551123Y-66528851D01*
X38532819Y-66510411D01*
X38526388Y-66488668D01*
X38525894Y-66475718D01*
X38525894Y-66472575D01*
X37884594Y-66472575D01*
X37884594Y-66535446D01*
X37507367Y-66535446D01*
X37507367Y-66472575D01*
X37884594Y-66472575D01*
X38525894Y-66472575D01*
X38525881Y-66434852D01*
X38420048Y-66434852D01*
X38371355Y-66436029D01*
X38333405Y-66439165D01*
X38312308Y-66443671D01*
X38310023Y-66445495D01*
X38296641Y-66448295D01*
X38264074Y-66447148D01*
X38217916Y-66442393D01*
X38186376Y-66438003D01*
X38129188Y-66429378D01*
X38076886Y-66421591D01*
X38037582Y-66415847D01*
X38026055Y-66414215D01*
X37995937Y-66404888D01*
X37985188Y-66390272D01*
X37981920Y-66384320D01*
X37970230Y-66379778D01*
X37947288Y-66376470D01*
X37910265Y-66374215D01*
X37856332Y-66372834D01*
X37782660Y-66372150D01*
X37695980Y-66371980D01*
X37603471Y-66372077D01*
X37533094Y-66372530D01*
X37481836Y-66373590D01*
X37446680Y-66375503D01*
X37424611Y-66378519D01*
X37412615Y-66382885D01*
X37407676Y-66388849D01*
X37406773Y-66395784D01*
X37399079Y-66417795D01*
X37373879Y-66430321D01*
X37327991Y-66434788D01*
X37319736Y-66434852D01*
X37242027Y-66442868D01*
X37153767Y-66464936D01*
X37062915Y-66498084D01*
X36977430Y-66539339D01*
X36905274Y-66585731D01*
X36895928Y-66593082D01*
X36865467Y-66616998D01*
X36847428Y-66626576D01*
X36834831Y-66623480D01*
X36821900Y-66610704D01*
X36783707Y-66585678D01*
X36734002Y-66576071D01*
X36680476Y-66581067D01*
X36630822Y-66599851D01*
X36592733Y-66631606D01*
X36589975Y-66635297D01*
X36561474Y-66694575D01*
X36556172Y-66755934D01*
X36573482Y-66814427D01*
X36612820Y-66865104D01*
X36617630Y-66869289D01*
X36645560Y-66889167D01*
X36673898Y-66897921D01*
X36713737Y-66898553D01*
X36723689Y-66897992D01*
X36762668Y-66896562D01*
X36782746Y-66899839D01*
X36790015Y-66909728D01*
X36790760Y-66918961D01*
X36792284Y-66945744D01*
X36796065Y-66986025D01*
X36798782Y-67010124D01*
X36802723Y-67048401D01*
X36801084Y-67067996D01*
X36791579Y-67075158D01*
X36774649Y-67076139D01*
X36764608Y-67072901D01*
X36748410Y-67062420D01*
X36724855Y-67043548D01*
X36692743Y-67015135D01*
X36650872Y-66976035D01*
X36598043Y-66925097D01*
X36533055Y-66861173D01*
X36454709Y-66783114D01*
X36361803Y-66689772D01*
X36253137Y-66579998D01*
X36200769Y-66526952D01*
X35658951Y-65977767D01*
X35659570Y-66064848D01*
G36*
X36036178Y-72017822D02*
G01*
X39556971Y-72017822D01*
X39556971Y-71150198D01*
X36036178Y-71150198D01*
X36036178Y-72017822D01*
G37*
X36036178Y-72017822D02*
X39556971Y-72017822D01*
X39556971Y-71150198D01*
X36036178Y-71150198D01*
X36036178Y-72017822D01*
G36*
X51452186Y-65326931D02*
G01*
X51368365Y-65771555D01*
X51059080Y-65899053D01*
X50749794Y-66026551D01*
X50378754Y-65774246D01*
X50274843Y-65703996D01*
X50180913Y-65641272D01*
X50101348Y-65588938D01*
X50040530Y-65549857D01*
X50002843Y-65526893D01*
X49992579Y-65521942D01*
X49974090Y-65534676D01*
X49934580Y-65569882D01*
X49878478Y-65623062D01*
X49810213Y-65689718D01*
X49734214Y-65765354D01*
X49654908Y-65845472D01*
X49576725Y-65925574D01*
X49504093Y-66001164D01*
X49441441Y-66067745D01*
X49393197Y-66120818D01*
X49363790Y-66155887D01*
X49356759Y-66167623D01*
X49366877Y-66189260D01*
X49395241Y-66236662D01*
X49438871Y-66305193D01*
X49494782Y-66390215D01*
X49559994Y-66487093D01*
X49597781Y-66542350D01*
X49666657Y-66643248D01*
X49727860Y-66734299D01*
X49778422Y-66810970D01*
X49815372Y-66868728D01*
X49835742Y-66903043D01*
X49838803Y-66910254D01*
X49831864Y-66930748D01*
X49812949Y-66978513D01*
X49784913Y-67046832D01*
X49750609Y-67128989D01*
X49712891Y-67218270D01*
X49674613Y-67307958D01*
X49638630Y-67391338D01*
X49607794Y-67461694D01*
X49584961Y-67512310D01*
X49572983Y-67536471D01*
X49572276Y-67537422D01*
X49553469Y-67542036D01*
X49503382Y-67552328D01*
X49427207Y-67567287D01*
X49330135Y-67585901D01*
X49217357Y-67607159D01*
X49151558Y-67619418D01*
X49031050Y-67642362D01*
X48922203Y-67664195D01*
X48830524Y-67683722D01*
X48761519Y-67699748D01*
X48720696Y-67711079D01*
X48712489Y-67714674D01*
X48704452Y-67739006D01*
X48697967Y-67793959D01*
X48693030Y-67873108D01*
X48689636Y-67970026D01*
X48687782Y-68078287D01*
X48687462Y-68191465D01*
X48688673Y-68303135D01*
X48691410Y-68406868D01*
X48695669Y-68496241D01*
X48701445Y-68564826D01*
X48708733Y-68606197D01*
X48713105Y-68614810D01*
X48739236Y-68625133D01*
X48794607Y-68639892D01*
X48871893Y-68657352D01*
X48963770Y-68675780D01*
X48995842Y-68681741D01*
X49150476Y-68710066D01*
X49272625Y-68732876D01*
X49366327Y-68751080D01*
X49435616Y-68765583D01*
X49484529Y-68777292D01*
X49517103Y-68787115D01*
X49537372Y-68795956D01*
X49549374Y-68804724D01*
X49551053Y-68806457D01*
X49567816Y-68834371D01*
X49593386Y-68888695D01*
X49625212Y-68962777D01*
X49660740Y-69049965D01*
X49697417Y-69143608D01*
X49732689Y-69237052D01*
X49764004Y-69323647D01*
X49788807Y-69396740D01*
X49804546Y-69449678D01*
X49808668Y-69475811D01*
X49808324Y-69476726D01*
X49794359Y-69498086D01*
X49762678Y-69545084D01*
X49716609Y-69612827D01*
X49659482Y-69696423D01*
X49594627Y-69790982D01*
X49576157Y-69817854D01*
X49510301Y-69915275D01*
X49452350Y-70004163D01*
X49405462Y-70079412D01*
X49372793Y-70135920D01*
X49357500Y-70168581D01*
X49356759Y-70172593D01*
X49369608Y-70193684D01*
X49405112Y-70235464D01*
X49458707Y-70293445D01*
X49525829Y-70363135D01*
X49601913Y-70440045D01*
X49682396Y-70519683D01*
X49762713Y-70597561D01*
X49838301Y-70669186D01*
X49904595Y-70730070D01*
X49957031Y-70775721D01*
X49991045Y-70801650D01*
X50000455Y-70805883D01*
X50022357Y-70795912D01*
X50067200Y-70769020D01*
X50127679Y-70729736D01*
X50174211Y-70698117D01*
X50258525Y-70640098D01*
X50358374Y-70571784D01*
X50458527Y-70503579D01*
X50512373Y-70467075D01*
X50694629Y-70343800D01*
X50847619Y-70426520D01*
X50917318Y-70462759D01*
X50976586Y-70490926D01*
X51016689Y-70506991D01*
X51026897Y-70509226D01*
X51039171Y-70492722D01*
X51063387Y-70446082D01*
X51097737Y-70373609D01*
X51140412Y-70279606D01*
X51189606Y-70168374D01*
X51243510Y-70044215D01*
X51300316Y-69911432D01*
X51358218Y-69774327D01*
X51415407Y-69637202D01*
X51470076Y-69504358D01*
X51520416Y-69380098D01*
X51564620Y-69268725D01*
X51600881Y-69174539D01*
X51627391Y-69101844D01*
X51642342Y-69054941D01*
X51644746Y-69038833D01*
X51625689Y-69018286D01*
X51583964Y-68984933D01*
X51528294Y-68945702D01*
X51523622Y-68942599D01*
X51379736Y-68827423D01*
X51263717Y-68693053D01*
X51176570Y-68543784D01*
X51119301Y-68383913D01*
X51092914Y-68217737D01*
X51098415Y-68049552D01*
X51136810Y-67883655D01*
X51209105Y-67724342D01*
X51230374Y-67689487D01*
X51341004Y-67548737D01*
X51471698Y-67435714D01*
X51617936Y-67351003D01*
X51775192Y-67295194D01*
X51938943Y-67268874D01*
X52104667Y-67272630D01*
X52267838Y-67307050D01*
X52423935Y-67372723D01*
X52568433Y-67470235D01*
X52613131Y-67509813D01*
X52726888Y-67633703D01*
X52809782Y-67764124D01*
X52866644Y-67910315D01*
X52898313Y-68055088D01*
X52906131Y-68217860D01*
X52880062Y-68381440D01*
X52822755Y-68540298D01*
X52736856Y-68688906D01*
X52625014Y-68821735D01*
X52489877Y-68933256D01*
X52472117Y-68945011D01*
X52415850Y-68983508D01*
X52373077Y-69016863D01*
X52352628Y-69038160D01*
X52352331Y-69038833D01*
X52356721Y-69061871D01*
X52374124Y-69114157D01*
X52402732Y-69191390D01*
X52440735Y-69289268D01*
X52486326Y-69403491D01*
X52537697Y-69529758D01*
X52593038Y-69663767D01*
X52650542Y-69801218D01*
X52708399Y-69937808D01*
X52764802Y-70069237D01*
X52817942Y-70191205D01*
X52866010Y-70299409D01*
X52907199Y-70389549D01*
X52939699Y-70457323D01*
X52961703Y-70498430D01*
X52970564Y-70509226D01*
X52997640Y-70500819D01*
X53048303Y-70478272D01*
X53113817Y-70445613D01*
X53149841Y-70426520D01*
X53302832Y-70343800D01*
X53485088Y-70467075D01*
X53578125Y-70530228D01*
X53679985Y-70599727D01*
X53775438Y-70665165D01*
X53823250Y-70698117D01*
X53890495Y-70743273D01*
X53947436Y-70779057D01*
X53986646Y-70800938D01*
X53999381Y-70805563D01*
X54017917Y-70793085D01*
X54058941Y-70758252D01*
X54118475Y-70704678D01*
X54192542Y-70635983D01*
X54277165Y-70555781D01*
X54330685Y-70504286D01*
X54424319Y-70412286D01*
X54505241Y-70329999D01*
X54570177Y-70260945D01*
X54615858Y-70208644D01*
X54639011Y-70176616D01*
X54641232Y-70170116D01*
X54630924Y-70145394D01*
X54602439Y-70095405D01*
X54558937Y-70025212D01*
X54503577Y-69939875D01*
X54439520Y-69844456D01*
X54421303Y-69817854D01*
X54354927Y-69721167D01*
X54295378Y-69634117D01*
X54245984Y-69561595D01*
X54210075Y-69508493D01*
X54190981Y-69479703D01*
X54189136Y-69476726D01*
X54191895Y-69453782D01*
X54206538Y-69403336D01*
X54230513Y-69332041D01*
X54261266Y-69246547D01*
X54296244Y-69153507D01*
X54332893Y-69059574D01*
X54368661Y-68971399D01*
X54400994Y-68895634D01*
X54427338Y-68838931D01*
X54445142Y-68807943D01*
X54446407Y-68806457D01*
X54457294Y-68797601D01*
X54475682Y-68788843D01*
X54505606Y-68779277D01*
X54551103Y-68767996D01*
X54616209Y-68754093D01*
X54704961Y-68736663D01*
X54821393Y-68714798D01*
X54969542Y-68687591D01*
X55001618Y-68681741D01*
X55096686Y-68663374D01*
X55179565Y-68645405D01*
X55242930Y-68629569D01*
X55279458Y-68617600D01*
X55284356Y-68614810D01*
X55292427Y-68590072D01*
X55298987Y-68534790D01*
X55304033Y-68455389D01*
X55307559Y-68358296D01*
X55309561Y-68249938D01*
X55310036Y-68136740D01*
X55308977Y-68025128D01*
X55306382Y-67921529D01*
X55302246Y-67832368D01*
X55296563Y-67764072D01*
X55289331Y-67723066D01*
X55284971Y-67714674D01*
X55260698Y-67706208D01*
X55205426Y-67692435D01*
X55124662Y-67674550D01*
X55023912Y-67653748D01*
X54908683Y-67631223D01*
X54845902Y-67619418D01*
X54726787Y-67597151D01*
X54620565Y-67576979D01*
X54532427Y-67559915D01*
X54467566Y-67546969D01*
X54431174Y-67539155D01*
X54425184Y-67537422D01*
X54415061Y-67517890D01*
X54393662Y-67470843D01*
X54363839Y-67403003D01*
X54328445Y-67321091D01*
X54290332Y-67231828D01*
X54252353Y-67141935D01*
X54217360Y-67058135D01*
X54188206Y-66987147D01*
X54167743Y-66935694D01*
X54158823Y-66910497D01*
X54158657Y-66909396D01*
X54168769Y-66889519D01*
X54197117Y-66843777D01*
X54240723Y-66776717D01*
X54296606Y-66692884D01*
X54361787Y-66596826D01*
X54399679Y-66541650D01*
X54468725Y-66440481D01*
X54530050Y-66348630D01*
X54580663Y-66270744D01*
X54617571Y-66211469D01*
X54637782Y-66175451D01*
X54640701Y-66167377D01*
X54628153Y-66148584D01*
X54593463Y-66108457D01*
X54541063Y-66051493D01*
X54475384Y-65982185D01*
X54400856Y-65905031D01*
X54321913Y-65824525D01*
X54242983Y-65745163D01*
X54168500Y-65671440D01*
X54102894Y-65607852D01*
X54050596Y-65558894D01*
X54016039Y-65529061D01*
X54004478Y-65521942D01*
X53985654Y-65531953D01*
X53940631Y-65560078D01*
X53873787Y-65603454D01*
X53789499Y-65659218D01*
X53692144Y-65724506D01*
X53618707Y-65774246D01*
X53247667Y-66026551D01*
X52629095Y-65771555D01*
X52545275Y-65326931D01*
X52461454Y-64882307D01*
X51536006Y-64882307D01*
X51452186Y-65326931D01*
G37*
X51452186Y-65326931D02*
X51368365Y-65771555D01*
X51059080Y-65899053D01*
X50749794Y-66026551D01*
X50378754Y-65774246D01*
X50274843Y-65703996D01*
X50180913Y-65641272D01*
X50101348Y-65588938D01*
X50040530Y-65549857D01*
X50002843Y-65526893D01*
X49992579Y-65521942D01*
X49974090Y-65534676D01*
X49934580Y-65569882D01*
X49878478Y-65623062D01*
X49810213Y-65689718D01*
X49734214Y-65765354D01*
X49654908Y-65845472D01*
X49576725Y-65925574D01*
X49504093Y-66001164D01*
X49441441Y-66067745D01*
X49393197Y-66120818D01*
X49363790Y-66155887D01*
X49356759Y-66167623D01*
X49366877Y-66189260D01*
X49395241Y-66236662D01*
X49438871Y-66305193D01*
X49494782Y-66390215D01*
X49559994Y-66487093D01*
X49597781Y-66542350D01*
X49666657Y-66643248D01*
X49727860Y-66734299D01*
X49778422Y-66810970D01*
X49815372Y-66868728D01*
X49835742Y-66903043D01*
X49838803Y-66910254D01*
X49831864Y-66930748D01*
X49812949Y-66978513D01*
X49784913Y-67046832D01*
X49750609Y-67128989D01*
X49712891Y-67218270D01*
X49674613Y-67307958D01*
X49638630Y-67391338D01*
X49607794Y-67461694D01*
X49584961Y-67512310D01*
X49572983Y-67536471D01*
X49572276Y-67537422D01*
X49553469Y-67542036D01*
X49503382Y-67552328D01*
X49427207Y-67567287D01*
X49330135Y-67585901D01*
X49217357Y-67607159D01*
X49151558Y-67619418D01*
X49031050Y-67642362D01*
X48922203Y-67664195D01*
X48830524Y-67683722D01*
X48761519Y-67699748D01*
X48720696Y-67711079D01*
X48712489Y-67714674D01*
X48704452Y-67739006D01*
X48697967Y-67793959D01*
X48693030Y-67873108D01*
X48689636Y-67970026D01*
X48687782Y-68078287D01*
X48687462Y-68191465D01*
X48688673Y-68303135D01*
X48691410Y-68406868D01*
X48695669Y-68496241D01*
X48701445Y-68564826D01*
X48708733Y-68606197D01*
X48713105Y-68614810D01*
X48739236Y-68625133D01*
X48794607Y-68639892D01*
X48871893Y-68657352D01*
X48963770Y-68675780D01*
X48995842Y-68681741D01*
X49150476Y-68710066D01*
X49272625Y-68732876D01*
X49366327Y-68751080D01*
X49435616Y-68765583D01*
X49484529Y-68777292D01*
X49517103Y-68787115D01*
X49537372Y-68795956D01*
X49549374Y-68804724D01*
X49551053Y-68806457D01*
X49567816Y-68834371D01*
X49593386Y-68888695D01*
X49625212Y-68962777D01*
X49660740Y-69049965D01*
X49697417Y-69143608D01*
X49732689Y-69237052D01*
X49764004Y-69323647D01*
X49788807Y-69396740D01*
X49804546Y-69449678D01*
X49808668Y-69475811D01*
X49808324Y-69476726D01*
X49794359Y-69498086D01*
X49762678Y-69545084D01*
X49716609Y-69612827D01*
X49659482Y-69696423D01*
X49594627Y-69790982D01*
X49576157Y-69817854D01*
X49510301Y-69915275D01*
X49452350Y-70004163D01*
X49405462Y-70079412D01*
X49372793Y-70135920D01*
X49357500Y-70168581D01*
X49356759Y-70172593D01*
X49369608Y-70193684D01*
X49405112Y-70235464D01*
X49458707Y-70293445D01*
X49525829Y-70363135D01*
X49601913Y-70440045D01*
X49682396Y-70519683D01*
X49762713Y-70597561D01*
X49838301Y-70669186D01*
X49904595Y-70730070D01*
X49957031Y-70775721D01*
X49991045Y-70801650D01*
X50000455Y-70805883D01*
X50022357Y-70795912D01*
X50067200Y-70769020D01*
X50127679Y-70729736D01*
X50174211Y-70698117D01*
X50258525Y-70640098D01*
X50358374Y-70571784D01*
X50458527Y-70503579D01*
X50512373Y-70467075D01*
X50694629Y-70343800D01*
X50847619Y-70426520D01*
X50917318Y-70462759D01*
X50976586Y-70490926D01*
X51016689Y-70506991D01*
X51026897Y-70509226D01*
X51039171Y-70492722D01*
X51063387Y-70446082D01*
X51097737Y-70373609D01*
X51140412Y-70279606D01*
X51189606Y-70168374D01*
X51243510Y-70044215D01*
X51300316Y-69911432D01*
X51358218Y-69774327D01*
X51415407Y-69637202D01*
X51470076Y-69504358D01*
X51520416Y-69380098D01*
X51564620Y-69268725D01*
X51600881Y-69174539D01*
X51627391Y-69101844D01*
X51642342Y-69054941D01*
X51644746Y-69038833D01*
X51625689Y-69018286D01*
X51583964Y-68984933D01*
X51528294Y-68945702D01*
X51523622Y-68942599D01*
X51379736Y-68827423D01*
X51263717Y-68693053D01*
X51176570Y-68543784D01*
X51119301Y-68383913D01*
X51092914Y-68217737D01*
X51098415Y-68049552D01*
X51136810Y-67883655D01*
X51209105Y-67724342D01*
X51230374Y-67689487D01*
X51341004Y-67548737D01*
X51471698Y-67435714D01*
X51617936Y-67351003D01*
X51775192Y-67295194D01*
X51938943Y-67268874D01*
X52104667Y-67272630D01*
X52267838Y-67307050D01*
X52423935Y-67372723D01*
X52568433Y-67470235D01*
X52613131Y-67509813D01*
X52726888Y-67633703D01*
X52809782Y-67764124D01*
X52866644Y-67910315D01*
X52898313Y-68055088D01*
X52906131Y-68217860D01*
X52880062Y-68381440D01*
X52822755Y-68540298D01*
X52736856Y-68688906D01*
X52625014Y-68821735D01*
X52489877Y-68933256D01*
X52472117Y-68945011D01*
X52415850Y-68983508D01*
X52373077Y-69016863D01*
X52352628Y-69038160D01*
X52352331Y-69038833D01*
X52356721Y-69061871D01*
X52374124Y-69114157D01*
X52402732Y-69191390D01*
X52440735Y-69289268D01*
X52486326Y-69403491D01*
X52537697Y-69529758D01*
X52593038Y-69663767D01*
X52650542Y-69801218D01*
X52708399Y-69937808D01*
X52764802Y-70069237D01*
X52817942Y-70191205D01*
X52866010Y-70299409D01*
X52907199Y-70389549D01*
X52939699Y-70457323D01*
X52961703Y-70498430D01*
X52970564Y-70509226D01*
X52997640Y-70500819D01*
X53048303Y-70478272D01*
X53113817Y-70445613D01*
X53149841Y-70426520D01*
X53302832Y-70343800D01*
X53485088Y-70467075D01*
X53578125Y-70530228D01*
X53679985Y-70599727D01*
X53775438Y-70665165D01*
X53823250Y-70698117D01*
X53890495Y-70743273D01*
X53947436Y-70779057D01*
X53986646Y-70800938D01*
X53999381Y-70805563D01*
X54017917Y-70793085D01*
X54058941Y-70758252D01*
X54118475Y-70704678D01*
X54192542Y-70635983D01*
X54277165Y-70555781D01*
X54330685Y-70504286D01*
X54424319Y-70412286D01*
X54505241Y-70329999D01*
X54570177Y-70260945D01*
X54615858Y-70208644D01*
X54639011Y-70176616D01*
X54641232Y-70170116D01*
X54630924Y-70145394D01*
X54602439Y-70095405D01*
X54558937Y-70025212D01*
X54503577Y-69939875D01*
X54439520Y-69844456D01*
X54421303Y-69817854D01*
X54354927Y-69721167D01*
X54295378Y-69634117D01*
X54245984Y-69561595D01*
X54210075Y-69508493D01*
X54190981Y-69479703D01*
X54189136Y-69476726D01*
X54191895Y-69453782D01*
X54206538Y-69403336D01*
X54230513Y-69332041D01*
X54261266Y-69246547D01*
X54296244Y-69153507D01*
X54332893Y-69059574D01*
X54368661Y-68971399D01*
X54400994Y-68895634D01*
X54427338Y-68838931D01*
X54445142Y-68807943D01*
X54446407Y-68806457D01*
X54457294Y-68797601D01*
X54475682Y-68788843D01*
X54505606Y-68779277D01*
X54551103Y-68767996D01*
X54616209Y-68754093D01*
X54704961Y-68736663D01*
X54821393Y-68714798D01*
X54969542Y-68687591D01*
X55001618Y-68681741D01*
X55096686Y-68663374D01*
X55179565Y-68645405D01*
X55242930Y-68629569D01*
X55279458Y-68617600D01*
X55284356Y-68614810D01*
X55292427Y-68590072D01*
X55298987Y-68534790D01*
X55304033Y-68455389D01*
X55307559Y-68358296D01*
X55309561Y-68249938D01*
X55310036Y-68136740D01*
X55308977Y-68025128D01*
X55306382Y-67921529D01*
X55302246Y-67832368D01*
X55296563Y-67764072D01*
X55289331Y-67723066D01*
X55284971Y-67714674D01*
X55260698Y-67706208D01*
X55205426Y-67692435D01*
X55124662Y-67674550D01*
X55023912Y-67653748D01*
X54908683Y-67631223D01*
X54845902Y-67619418D01*
X54726787Y-67597151D01*
X54620565Y-67576979D01*
X54532427Y-67559915D01*
X54467566Y-67546969D01*
X54431174Y-67539155D01*
X54425184Y-67537422D01*
X54415061Y-67517890D01*
X54393662Y-67470843D01*
X54363839Y-67403003D01*
X54328445Y-67321091D01*
X54290332Y-67231828D01*
X54252353Y-67141935D01*
X54217360Y-67058135D01*
X54188206Y-66987147D01*
X54167743Y-66935694D01*
X54158823Y-66910497D01*
X54158657Y-66909396D01*
X54168769Y-66889519D01*
X54197117Y-66843777D01*
X54240723Y-66776717D01*
X54296606Y-66692884D01*
X54361787Y-66596826D01*
X54399679Y-66541650D01*
X54468725Y-66440481D01*
X54530050Y-66348630D01*
X54580663Y-66270744D01*
X54617571Y-66211469D01*
X54637782Y-66175451D01*
X54640701Y-66167377D01*
X54628153Y-66148584D01*
X54593463Y-66108457D01*
X54541063Y-66051493D01*
X54475384Y-65982185D01*
X54400856Y-65905031D01*
X54321913Y-65824525D01*
X54242983Y-65745163D01*
X54168500Y-65671440D01*
X54102894Y-65607852D01*
X54050596Y-65558894D01*
X54016039Y-65529061D01*
X54004478Y-65521942D01*
X53985654Y-65531953D01*
X53940631Y-65560078D01*
X53873787Y-65603454D01*
X53789499Y-65659218D01*
X53692144Y-65724506D01*
X53618707Y-65774246D01*
X53247667Y-66026551D01*
X52629095Y-65771555D01*
X52545275Y-65326931D01*
X52461454Y-64882307D01*
X51536006Y-64882307D01*
X51452186Y-65326931D01*
D10*
X8952895Y-37702066D02*
X9533466Y-37702066D01*
X9649580Y-37663361D01*
X9726990Y-37585952D01*
X9765695Y-37469838D01*
X9765695Y-37392428D01*
X8952895Y-38476161D02*
X8952895Y-38089114D01*
X9339942Y-38050409D01*
X9301238Y-38089114D01*
X9262533Y-38166523D01*
X9262533Y-38360047D01*
X9301238Y-38437457D01*
X9339942Y-38476161D01*
X9417352Y-38514866D01*
X9610876Y-38514866D01*
X9688285Y-38476161D01*
X9726990Y-38437457D01*
X9765695Y-38360047D01*
X9765695Y-38166523D01*
X9726990Y-38089114D01*
X9688285Y-38050409D01*
X8952895Y-22462066D02*
X9533466Y-22462066D01*
X9649580Y-22423361D01*
X9726990Y-22345952D01*
X9765695Y-22229838D01*
X9765695Y-22152428D01*
X9223828Y-23197457D02*
X9765695Y-23197457D01*
X8914190Y-23003933D02*
X9494761Y-22810409D01*
X9494761Y-23313571D01*
X8952895Y-12175066D02*
X9533466Y-12175066D01*
X9649580Y-12136361D01*
X9726990Y-12058952D01*
X9765695Y-11942838D01*
X9765695Y-11865428D01*
X8952895Y-12484704D02*
X8952895Y-12987866D01*
X9262533Y-12716933D01*
X9262533Y-12833047D01*
X9301238Y-12910457D01*
X9339942Y-12949161D01*
X9417352Y-12987866D01*
X9610876Y-12987866D01*
X9688285Y-12949161D01*
X9726990Y-12910457D01*
X9765695Y-12833047D01*
X9765695Y-12600819D01*
X9726990Y-12523409D01*
X9688285Y-12484704D01*
M02*
